<?xml version="1.0" encoding="UTF-8"?>
<svg width="1744px" height="393px" viewBox="0 0 1744 393" version="1.1" xmlns="http://www.w3.org/2000/svg" xmlns:xlink="http://www.w3.org/1999/xlink">
    <title>Ascoltare White Animated</title>
    <g id="Page-1" stroke="none" stroke-width="1" fill="none" fill-rule="evenodd">
        <g id="Group-2" transform="translate(0.677325, 0.459526)" fill-rule="nonzero">
            <!-- Text "Ascoltare" - white -->
            <g id="Ascoltare-Copy-6" transform="translate(431.473143, 104.002974)" fill="#FFFFFF">
                <path d="M126.75,167.375 L53.95,167.375 C51.5666667,175.391667 49.0208333,183.733333 46.3125,192.4 C43.6041667,201.066667 41.3833333,208.216667 39.65,213.85 C37.4833333,214.716667 35.1541667,215.475 32.6625,216.125 C30.1708333,216.775 27.0833333,217.1 23.4,217.1 C16.0333333,217.1 10.2916667,215.6375 6.175,212.7125 C2.05833333,209.7875 0,205.616667 0,200.2 C0,197.6 0.379166667,195.054167 1.1375,192.5625 C1.89583333,190.070833 2.81666667,187.2 3.9,183.95 C5.63333333,177.883333 7.9625,170.570833 10.8875,162.0125 C13.8125,153.454167 16.9541667,144.1375 20.3125,134.0625 C23.6708333,123.9875 27.3,113.5875 31.2,102.8625 C35.1,92.1375 38.8375,81.7375 42.4125,71.6625 C45.9875,61.5875 49.4541667,52.1625 52.8125,43.3875 C56.1708333,34.6125 59.0416667,27.0833333 61.425,20.8 C64.2416667,19.2833333 68.4125,17.7666667 73.9375,16.25 C79.4625,14.7333333 85.0416667,13.975 90.675,13.975 C98.2583333,13.975 105.191667,15.1125 111.475,17.3875 C117.758333,19.6625 121.766667,23.2916667 123.5,28.275 C127.833333,40.1916667 132.6,53.8958333 137.8,69.3875 C143,84.8791667 148.254167,100.858333 153.5625,117.325 C158.870833,133.791667 164.016667,149.933333 169,165.75 C173.983333,181.566667 178.425,195.758333 182.325,208.325 C180.158333,210.708333 177.179167,212.7125 173.3875,214.3375 C169.595833,215.9625 165.1,216.775 159.9,216.775 C152.316667,216.775 146.954167,215.420833 143.8125,212.7125 C140.670833,210.004167 138.233333,205.725 136.5,199.875 L126.75,167.375 Z M90.35,51.025 C88.4,56.4416667 86.2875,62.5083333 84.0125,69.225 C81.7375,75.9416667 79.3541667,82.9291667 76.8625,90.1875 C74.3708333,97.4458333 71.825,104.8125 69.225,112.2875 C66.625,119.7625 64.1333333,127.075 61.75,134.225 L118.3,134.225 L91.975,51.025 L90.35,51.025 Z" id="Shape"></path>
                <path d="M325.85,170.3 C325.85,185.466667 320.216667,197.329167 308.95,205.8875 C297.683333,214.445833 281.216667,218.725 259.55,218.725 C250.666667,218.725 242.595833,218.075 235.3375,216.775 C228.079167,215.475 221.795833,213.579167 216.4875,211.0875 C211.179167,208.595833 207.0625,205.5625 204.1375,201.9875 C201.2125,198.4125 199.75,194.458333 199.75,190.125 C199.75,186.008333 200.670833,182.433333 202.5125,179.4 C204.354167,176.366667 206.791667,173.875 209.825,171.925 C215.891667,175.825 222.879167,179.291667 230.7875,182.325 C238.695833,185.358333 247.85,186.875 258.25,186.875 C267.133333,186.875 273.85,185.4125 278.4,182.4875 C282.95,179.5625 285.225,175.5 285.225,170.3 C285.225,161.416667 278.725,155.566667 265.725,152.75 L247.525,148.525 C231.491667,144.841667 219.629167,139.316667 211.9375,131.95 C204.245833,124.583333 200.4,114.725 200.4,102.375 C200.4,88.2916667 206.033333,76.8625 217.3,68.0875 C228.566667,59.3125 244.383333,54.925 264.75,54.925 C272.55,54.925 279.754167,55.5208333 286.3625,56.7125 C292.970833,57.9041667 298.7125,59.6375 303.5875,61.9125 C308.4625,64.1875 312.254167,66.8958333 314.9625,70.0375 C317.670833,73.1791667 319.025,76.8083333 319.025,80.925 C319.025,84.825 318.158333,88.2375 316.425,91.1625 C314.691667,94.0875 312.633333,96.4166667 310.25,98.15 C308.3,96.85 305.754167,95.55 302.6125,94.25 C299.470833,92.95 296.004167,91.7583333 292.2125,90.675 C288.420833,89.5916667 284.4125,88.6708333 280.1875,87.9125 C275.9625,87.1541667 271.791667,86.775 267.675,86.775 C259.225,86.775 252.616667,88.1291667 247.85,90.8375 C243.083333,93.5458333 240.7,97.3916667 240.7,102.375 C240.7,106.058333 242.054167,109.091667 244.7625,111.475 C247.470833,113.858333 252.183333,115.808333 258.9,117.325 L274.825,121.225 C292.808333,125.341667 305.808333,131.354167 313.825,139.2625 C321.841667,147.170833 325.85,157.516667 325.85,170.3 Z" id="Path"></path>
                <path d="M434.925,88.075 C428.425,88.075 422.4125,89.1583333 416.8875,91.325 C411.3625,93.4916667 406.595833,96.6333333 402.5875,100.75 C398.579167,104.866667 395.383333,109.958333 393,116.025 C390.616667,122.091667 389.425,129.133333 389.425,137.15 C389.425,153.183333 393.65,165.2625 402.1,173.3875 C410.55,181.5125 421.491667,185.575 434.925,185.575 C442.508333,185.575 449.0625,184.545833 454.5875,182.4875 C460.1125,180.429167 465.041667,178.208333 469.375,175.825 C472.408333,177.991667 474.845833,180.483333 476.6875,183.3 C478.529167,186.116667 479.45,189.366667 479.45,193.05 C479.45,200.416667 475.116667,206.483333 466.45,211.25 C457.783333,216.016667 446.083333,218.4 431.35,218.4 C419,218.4 407.679167,216.720833 397.3875,213.3625 C387.095833,210.004167 378.266667,204.9125 370.9,198.0875 C363.533333,191.2625 357.845833,182.758333 353.8375,172.575 C349.829167,162.391667 347.825,150.583333 347.825,137.15 C347.825,123.5 349.991667,111.529167 354.325,101.2375 C358.658333,90.9458333 364.5625,82.3875 372.0375,75.5625 C379.5125,68.7375 388.233333,63.6458333 398.2,60.2875 C408.166667,56.9291667 418.783333,55.25 430.05,55.25 C444.566667,55.25 456.158333,57.7958333 464.825,62.8875 C473.491667,67.9791667 477.825,74.2083333 477.825,81.575 C477.825,85.0416667 476.904167,88.1833333 475.0625,91 C473.220833,93.8166667 471.108333,96.0916667 468.725,97.825 C464.391667,95.4416667 459.570833,93.2208333 454.2625,91.1625 C448.954167,89.1041667 442.508333,88.075 434.925,88.075 Z" id="Path"></path>
                <path d="M654.825,136.825 C654.825,149.391667 652.929167,160.7125 649.1375,170.7875 C645.345833,180.8625 639.983333,189.475 633.05,196.625 C626.116667,203.775 617.775,209.245833 608.025,213.0375 C598.275,216.829167 587.333333,218.725 575.2,218.725 C563.066667,218.725 552.125,216.829167 542.375,213.0375 C532.625,209.245833 524.283333,203.829167 517.35,196.7875 C510.416667,189.745833 505.054167,181.1875 501.2625,171.1125 C497.470833,161.0375 495.575,149.608333 495.575,136.825 C495.575,124.258333 497.470833,112.9375 501.2625,102.8625 C505.054167,92.7875 510.470833,84.2291667 517.5125,77.1875 C524.554167,70.1458333 532.95,64.7291667 542.7,60.9375 C552.45,57.1458333 563.283333,55.25 575.2,55.25 C587.116667,55.25 597.95,57.1458333 607.7,60.9375 C617.45,64.7291667 625.845833,70.2 632.8875,77.35 C639.929167,84.5 645.345833,93.1125 649.1375,103.1875 C652.929167,113.2625 654.825,124.475 654.825,136.825 Z M575.2,87.75 C563.5,87.75 554.291667,92.0291667 547.575,100.5875 C540.858333,109.145833 537.5,121.225 537.5,136.825 C537.5,152.641667 540.804167,164.775 547.4125,173.225 C554.020833,181.675 563.283333,185.9 575.2,185.9 C587.116667,185.9 596.379167,181.620833 602.9875,173.0625 C609.595833,164.504167 612.9,152.425 612.9,136.825 C612.9,121.225 609.541667,109.145833 602.825,100.5875 C596.108333,92.0291667 586.9,87.75 575.2,87.75 Z" id="Shape"></path>
                <path d="M726.525,213.525 C724.791667,213.958333 722.245833,214.5 718.8875,215.15 C715.529167,215.8 711.9,216.125 708,216.125 C700.2,216.125 694.5125,214.716667 690.9375,211.9 C687.3625,209.083333 685.575,204.1 685.575,196.95 L685.575,2.6 C687.308333,1.95 689.854167,1.35416667 693.2125,0.8125 C696.570833,0.270833333 700.2,0 704.1,0 C711.9,0 717.5875,1.40833333 721.1625,4.225 C724.7375,7.04166667 726.525,12.025 726.525,19.175 L726.525,213.525 Z" id="Path"></path>
                <path d="M806.025,166.075 C806.025,173.008333 808.1375,177.991667 812.3625,181.025 C816.5875,184.058333 822.491667,185.575 830.075,185.575 C833.758333,185.575 837.495833,185.141667 841.2875,184.275 C845.079167,183.408333 848.491667,182.325 851.525,181.025 C853.258333,182.758333 854.720833,184.870833 855.9125,187.3625 C857.104167,189.854167 857.7,192.725 857.7,195.975 C857.7,202.475 854.775,207.8375 848.925,212.0625 C843.075,216.2875 833.65,218.4 820.65,218.4 C803.533333,218.4 790.045833,214.554167 780.1875,206.8625 C770.329167,199.170833 765.4,186.441667 765.4,168.675 L765.4,19.5 C767.133333,19.0666667 769.679167,18.525 773.0375,17.875 C776.395833,17.225 780.025,16.9 783.925,16.9 C791.508333,16.9 797.0875,18.3083333 800.6625,21.125 C804.2375,23.9416667 806.025,28.925 806.025,36.075 L806.025,63.05 L853.8,63.05 C854.883333,64.7833333 855.858333,67.0583333 856.725,69.875 C857.591667,72.6916667 858.025,75.725 858.025,78.975 C858.025,84.6083333 856.725,88.725 854.125,91.325 C851.525,93.925 848.058333,95.225 843.725,95.225 L806.025,95.225 L806.025,166.075 Z" id="Path"></path>
                <path d="M946.625,187.525 C952.908333,187.525 958.65,186.929167 963.85,185.7375 C969.05,184.545833 972.841667,183.083333 975.225,181.35 L975.225,145.275 L943.7,148.2 C935.033333,149.066667 928.425,150.9625 923.875,153.8875 C919.325,156.8125 917.05,161.416667 917.05,167.7 C917.05,173.983333 919.379167,178.858333 924.0375,182.325 C928.695833,185.791667 936.225,187.525 946.625,187.525 Z M945.325,55.25 C966.558333,55.25 983.5125,59.8 996.1875,68.9 C1008.8625,78 1015.2,92.0833333 1015.2,111.15 L1015.2,186.225 C1015.2,191.425 1013.9,195.541667 1011.3,198.575 C1008.7,201.608333 1005.45,204.316667 1001.55,206.7 C995.483333,210.383333 987.791667,213.308333 978.475,215.475 C969.158333,217.641667 958.541667,218.725 946.625,218.725 C924.958333,218.725 907.895833,214.554167 895.4375,206.2125 C882.979167,197.870833 876.75,185.358333 876.75,168.675 C876.75,154.158333 881.354167,143.054167 890.5625,135.3625 C899.770833,127.670833 913.15,122.958333 930.7,121.225 L975.225,116.675 L975.225,110.825 C975.225,102.591667 972.245833,96.525 966.2875,92.625 C960.329167,88.725 951.933333,86.775 941.1,86.775 C932.65,86.775 924.416667,87.8041667 916.4,89.8625 C908.383333,91.9208333 901.233333,94.4666667 894.95,97.5 C892.566667,95.7666667 890.5625,93.4375 888.9375,90.5125 C887.3125,87.5875 886.5,84.3916667 886.5,80.925 C886.5,76.5916667 887.529167,73.0708333 889.5875,70.3625 C891.645833,67.6541667 894.95,65.2166667 899.5,63.05 C905.783333,60.45 912.933333,58.5 920.95,57.2 C928.966667,55.9 937.091667,55.25 945.325,55.25 Z" id="Shape"></path>
                <path d="M1091.775,213.525 C1089.825,213.958333 1087.225,214.5 1083.975,215.15 C1080.725,215.8 1077.04167,216.125 1072.925,216.125 C1065.34167,216.125 1059.70833,214.716667 1056.025,211.9 C1052.34167,209.083333 1050.5,204.1 1050.5,196.95 L1050.5,93.925 C1050.5,88.2916667 1051.8,83.525 1054.4,79.625 C1057,75.725 1060.79167,72.2583333 1065.775,69.225 C1072.49167,65.1083333 1080.77917,61.75 1090.6375,59.15 C1100.49583,56.55 1111.16667,55.25 1122.65,55.25 C1143.23333,55.25 1153.525,61.6416667 1153.525,74.425 C1153.525,77.4583333 1153.0375,80.3291667 1152.0625,83.0375 C1151.0875,85.7458333 1150.05833,87.9666667 1148.975,89.7 C1143.99167,88.6166667 1137.81667,88.075 1130.45,88.075 C1122.86667,88.075 1115.71667,88.9416667 1109,90.675 C1102.28333,92.4083333 1096.54167,94.575 1091.775,97.175 L1091.775,213.525 Z" id="Path"></path>
                <path d="M1203.125,155.35 C1206.15833,166.4 1211.79167,174.416667 1220.025,179.4 C1228.25833,184.383333 1238.44167,186.875 1250.575,186.875 C1259.675,186.875 1268.07083,185.520833 1275.7625,182.8125 C1283.45417,180.104167 1289.68333,177.233333 1294.45,174.2 C1297.48333,175.933333 1299.975,178.316667 1301.925,181.35 C1303.875,184.383333 1304.85,187.633333 1304.85,191.1 C1304.85,195.433333 1303.3875,199.279167 1300.4625,202.6375 C1297.5375,205.995833 1293.52917,208.866667 1288.4375,211.25 C1283.34583,213.633333 1277.33333,215.475 1270.4,216.775 C1263.46667,218.075 1255.99167,218.725 1247.975,218.725 C1235.19167,218.725 1223.54583,216.991667 1213.0375,213.525 C1202.52917,210.058333 1193.5375,204.804167 1186.0625,197.7625 C1178.5875,190.720833 1172.7375,182 1168.5125,171.6 C1164.2875,161.2 1162.175,149.066667 1162.175,135.2 C1162.175,121.766667 1164.23333,110.066667 1168.35,100.1 C1172.46667,90.1333333 1178.04583,81.7916667 1185.0875,75.075 C1192.12917,68.3583333 1200.30833,63.375 1209.625,60.125 C1218.94167,56.875 1228.8,55.25 1239.2,55.25 C1249.81667,55.25 1259.56667,56.9291667 1268.45,60.2875 C1277.33333,63.6458333 1284.91667,68.3041667 1291.2,74.2625 C1297.48333,80.2208333 1302.4125,87.3708333 1305.9875,95.7125 C1309.5625,104.054167 1311.35,113.1 1311.35,122.85 C1311.35,128.916667 1309.77917,133.466667 1306.6375,136.5 C1303.49583,139.533333 1299.10833,141.483333 1293.475,142.35 L1203.125,155.35 Z M1239.2,86.125 C1228.58333,86.125 1219.7,89.6458333 1212.55,96.6875 C1205.4,103.729167 1201.39167,113.75 1200.525,126.75 L1272.675,116.025 C1271.80833,108.008333 1268.66667,101.020833 1263.25,95.0625 C1257.83333,89.1041667 1249.81667,86.125 1239.2,86.125 Z" id="Shape"></path>
            </g>
            
            <!-- Icon - bubble (solid) -->
            <g id="Icon" fill="#28A963">
                <path d="M133.631662,384.831795 C121.892074,380.872189 110.576943,376.891226 99.1268448,373.346235 C96.422265,372.508905 93.0690449,372.442747 90.3451338,373.204803 C71.427523,378.497195 52.5677313,384.003312 33.7512346,389.647049 C24.0584263,392.554229 15.4026872,391.374402 8.06057407,384.113021 C0.81501671,376.947197 -0.245250097,368.351689 2.52082568,358.888855 C8.2140314,339.412236 13.8996344,319.93231 19.3490593,300.387001 C19.9773024,298.133718 19.7190961,295.192373 18.8073272,293.016031 C2.69902274,254.566233 -2.31411102,214.544901 0.940213601,173.181087 C3.11829786,145.49678 9.75406589,119.023173 21.5429824,93.9450563 C37.5391294,59.9170189 63.0137191,35.1482238 97.3027261,19.9847521 C137.75428,2.09604665 180.278202,-2.90484413 224.112168,1.51098044 C252.045931,4.32502567 278.805528,11.4164542 303.707005,24.3406288 C338.194278,42.2399725 362.073414,69.9968136 375.950799,106.153681 C385.977274,132.277298 391.418753,159.365928 391.935657,187.487086 C392.395131,212.484433 390.459294,237.076894 384.009058,261.328643 C375.529156,293.211586 361.507778,321.83124 337.0244,344.625423 C316.825134,363.431105 292.818953,374.964654 266.518622,382.637045 C233.2065,392.35498 199.395941,394.270143 165.154058,390.437135 C154.698641,389.26678 144.385237,386.827803 133.631662,384.831795 Z" id="Bubble"></path>
            </g>
            
            <!-- Animated bars - FASTER -->
            <!-- Middle bar (tallest) -->
            <path fill="white" d="M222.683882,129.161277 C222.687665,116.317372 222.84548,103.471189 222.657312,90.6300996 C222.407155,73.5551949 207.340768,61.9803239 191.069235,66.1407348 C179.269982,69.1576367 172.26522,79.0876452 172.260692,92.9843321 C172.239126,159.317881 172.24285,225.651444 172.241151,291.984993 C172.241062,295.399039 172.14881,298.819191 172.314935,302.225998 C172.868002,313.567863 179.411205,322.465478 189.57077,325.864331 C206.251109,331.44468 222.625618,319.148629 222.645188,300.848679 C222.706014,243.94496 222.677894,187.041151 222.683882,129.161277 Z">
                <animateTransform attributeName="transform" type="translate" values="0,0; 0,-12; 0,0" dur="0.35s" repeatCount="indefinite"/>
            </path>
            
            <!-- Left bar -->
            <path fill="white" d="M78.1968286,249.219092 C78.212482,258.807213 77.946956,268.406057 78.3111685,277.980921 C78.8281922,291.573567 90.0160407,301.698996 103.789869,301.539742 C117.134815,301.381758 127.90887,290.85226 128.215056,277.462111 C128.39335,269.665357 128.292772,261.86193 128.293144,254.061483 C128.295334,208.232463 128.252946,162.403369 128.323839,116.57447 C128.33583,108.788483 125.836472,102.182384 119.957339,97.1323145 C111.953651,90.2572927 102.660681,88.6834205 93.1265653,92.9316384 C83.4060987,97.2628886 78.2699282,105.255749 78.2596657,116.119062 C78.2180671,160.160349 78.2139275,204.201696 78.1968286,249.219092 Z">
                <animateTransform attributeName="transform" type="translate" values="0,0; 0,-10; 0,0" dur="0.45s" repeatCount="indefinite"/>
            </path>
            
            <!-- Right bar -->
            <path fill="white" d="M266.753884,183.821737 C266.758174,204.781004 266.745097,225.740301 266.791894,246.699478 C266.796927,248.95574 266.859541,251.282061 267.389701,253.455334 C270.380435,265.715015 282.135097,273.903536 294.340951,272.38696 C307.729104,270.723531 316.64349,260.777721 316.656864,247.304166 C316.690524,213.347082 316.662344,179.389909 316.662137,145.432781 C316.662047,130.946001 306.189741,119.958698 292.325224,119.908343 C277.469167,119.854814 266.90595,130.280888 266.77828,145.314271 C266.672028,157.823899 266.754838,170.335136 266.753884,183.821737 Z">
                <animateTransform attributeName="transform" type="translate" values="0,0; 0,-10; 0,0" dur="0.4s" repeatCount="indefinite" begin="0.1s"/>
            </path>
        </g>
    </g>
</svg>