<?xml version="1.0" encoding="UTF-8"?>
<svg width="1233px" height="393px" viewBox="0 0 1233 393" version="1.1" xmlns="http://www.w3.org/2000/svg" xmlns:xlink="http://www.w3.org/1999/xlink">
    <title>Group 3</title>
    <g id="Page-1" stroke="none" stroke-width="1" fill="none" fill-rule="evenodd">
        <g id="Group-3" transform="translate(0.476168, 0.294095)" fill-rule="nonzero">
            <g id="Orwell-Copy-3" transform="translate(425.487887, 95.966234)" fill="#131519">
                <path d="M96.6601563,213.28125 C67.8580729,213.28125 45.8463542,205.442708 30.625,189.765625 C10.2083333,170.533854 0,142.825521 0,106.640625 C0,69.7265625 10.2083333,42.0182292 30.625,23.515625 C45.8463542,7.83854167 67.8580729,0 96.6601563,0 C125.46224,0 147.473958,7.83854167 162.695312,23.515625 C183.020833,42.0182292 193.183594,69.7265625 193.183594,106.640625 C193.183594,142.825521 183.020833,170.533854 162.695312,189.765625 C147.473958,205.442708 125.46224,213.28125 96.6601563,213.28125 Z M136.445312,159.140625 C146.197917,146.835938 151.074219,129.335938 151.074219,106.640625 C151.074219,84.0364583 146.17513,66.5592448 136.376953,54.2089844 C126.578776,41.858724 113.339844,35.6835938 96.6601562,35.6835938 C79.9804688,35.6835938 66.6731771,41.8359375 56.7382812,54.140625 C46.8033854,66.4453125 41.8359375,83.9453125 41.8359375,106.640625 C41.8359375,129.335938 46.8033854,146.835938 56.7382812,159.140625 C66.6731771,171.445312 79.9804688,177.597656 96.6601562,177.597656 C113.339844,177.597656 126.601562,171.445312 136.445312,159.140625 Z" id="Shape"></path>
                <path d="M294.035298,94.609375 C278.358215,94.609375 267.830871,99.7135417 262.453267,109.921875 C259.445455,115.664062 257.941548,124.505208 257.941548,136.445312 L257.941548,207.675781 L218.703267,207.675781 L218.703267,58.6523438 L255.890767,58.6523438 L255.890767,84.6289062 C261.906392,74.6940104 267.147277,67.9036458 271.613423,64.2578125 C278.90509,58.1510417 288.384257,55.0976562 300.050923,55.0976562 C300.78009,55.0976562 301.395324,55.1204427 301.896626,55.1660156 C302.397929,55.2115885 303.514465,55.2799479 305.246236,55.3710938 L305.246236,95.2929688 C302.785298,95.0195312 300.597798,94.8372396 298.683736,94.7460938 C296.769673,94.6549479 295.220194,94.609375 294.035298,94.609375 Z" id="Path"></path>
                <polygon id="Path" points="438.090128 207.675781 414.711222 99.1210938 391.058878 207.675781 350.590128 207.675781 308.75419 58.6523438 350.590128 58.6523438 373.832315 165.566406 395.297159 58.6523438 434.808878 58.6523438 457.50419 165.976562 480.746378 58.6523438 521.351847 58.6523438 478.148722 207.675781"></polygon>
                <path d="M667.320739,163.925781 C666.318134,172.766927 661.71527,181.744792 653.512145,190.859375 C640.751728,205.351562 622.887145,212.597656 599.918395,212.597656 C580.960062,212.597656 564.234801,206.490885 549.742614,194.277344 C535.250426,182.063802 528.004332,162.19401 528.004332,134.667969 C528.004332,108.873698 534.544046,89.0950521 547.623473,75.3320312 C560.7029,61.5690104 577.678812,54.6875 598.551207,54.6875 C610.947041,54.6875 622.112405,57.0117188 632.047301,61.6601562 C641.982197,66.3085938 650.185322,73.6458333 656.656676,83.671875 C662.490009,92.5130208 666.272562,102.766927 668.004332,114.433594 C669.006937,121.269531 669.417093,131.113281 669.234801,143.964844 L567.242614,143.964844 C567.789489,158.91276 572.483499,169.394531 581.324645,175.410156 C586.702249,179.147135 593.173603,181.015625 600.738707,181.015625 C608.759541,181.015625 615.276468,178.736979 620.289489,174.179688 C623.023864,171.71875 625.439228,168.300781 627.535582,163.925781 L667.320739,163.925781 Z M628.766051,118.261719 C628.12803,107.96224 625.006286,100.146484 619.400817,94.8144531 C613.795348,89.4824219 606.845478,86.8164062 598.551207,86.8164062 C589.52777,86.8164062 582.532327,89.6419271 577.564879,95.2929688 C572.597431,100.94401 569.475687,108.60026 568.199645,118.261719 L628.766051,118.261719 Z" id="Shape"></path>
                <polygon id="Path" points="693.250568 6.15234375 732.215412 6.15234375 732.215412 207.675781 693.250568 207.675781"></polygon>
                <polygon id="Path" points="767.988991 6.15234375 806.953835 6.15234375 806.953835 207.675781 767.988991 207.675781"></polygon>
            </g>
            <g id="Ascoltare-Copy-7" fill="#28A963">
                <path d="M133.631662,384.831795 C121.892074,380.872189 110.576943,376.891226 99.1268448,373.346235 C96.422265,372.508905 93.0690449,372.442747 90.3451338,373.204803 C71.427523,378.497195 52.5677313,384.003312 33.7512346,389.647049 C24.0584263,392.554229 15.4026872,391.374402 8.06057407,384.113021 C0.81501671,376.947197 -0.245250097,368.351689 2.52082568,358.888855 C8.2140314,339.412236 13.8996344,319.93231 19.3490593,300.387001 C19.9773024,298.133718 19.7190961,295.192373 18.8073272,293.016031 C2.69902274,254.566233 -2.31411102,214.544901 0.940213601,173.181087 C3.11829786,145.49678 9.75406589,119.023173 21.5429824,93.9450563 C37.5391294,59.9170189 63.0137191,35.1482238 97.3027261,19.9847521 C137.75428,2.09604665 180.278202,-2.90484413 224.112168,1.51098044 C252.045931,4.32502567 278.805528,11.4164542 303.707005,24.3406288 C338.194278,42.2399725 362.073414,69.9968136 375.950799,106.153681 C385.977274,132.277298 391.418753,159.365928 391.935657,187.487086 C392.395131,212.484433 390.459294,237.076894 384.009058,261.328643 C375.529156,293.211586 361.507778,321.83124 337.0244,344.625423 C316.825134,363.431105 292.818953,374.964654 266.518622,382.637045 C233.2065,392.35498 199.395941,394.270143 165.154058,390.437135 C154.698641,389.26678 144.385237,386.827803 133.631662,384.831795 M222.683882,129.161277 C222.687665,116.317372 222.84548,103.471189 222.657312,90.6300996 C222.407155,73.5551949 207.340768,61.9803239 191.069235,66.1407348 C179.269982,69.1576367 172.26522,79.0876452 172.260692,92.9843321 C172.239126,159.317881 172.24285,225.651444 172.241151,291.984993 C172.241062,295.399039 172.14881,298.819191 172.314935,302.225998 C172.868002,313.567863 179.411205,322.465478 189.57077,325.864331 C206.251109,331.44468 222.625618,319.148629 222.645188,300.848679 C222.706014,243.94496 222.677894,187.041151 222.683882,129.161277 M78.1968286,249.219092 C78.212482,258.807213 77.946956,268.406057 78.3111685,277.980921 C78.8281922,291.573567 90.0160407,301.698996 103.789869,301.539742 C117.134815,301.381758 127.90887,290.85226 128.215056,277.462111 C128.39335,269.665357 128.292772,261.86193 128.293144,254.061483 C128.295334,208.232463 128.252946,162.403369 128.323839,116.57447 C128.33583,108.788483 125.836472,102.182384 119.957339,97.1323145 C111.953651,90.2572927 102.660681,88.6834205 93.1265653,92.9316384 C83.4060987,97.2628886 78.2699282,105.255749 78.2596657,116.119062 C78.2180671,160.160349 78.2139275,204.201696 78.1968286,249.219092 M266.753884,183.821737 C266.758174,204.781004 266.745097,225.740301 266.791894,246.699478 C266.796927,248.95574 266.859541,251.282061 267.389701,253.455334 C270.380435,265.715015 282.135097,273.903536 294.340951,272.38696 C307.729104,270.723531 316.64349,260.777721 316.656864,247.304166 C316.690524,213.347082 316.662344,179.389909 316.662137,145.432781 C316.662047,130.946001 306.189741,119.958698 292.325224,119.908343 C277.469167,119.854814 266.90595,130.280888 266.77828,145.314271 C266.672028,157.823899 266.754838,170.335136 266.753884,183.821737 Z" id="Shape"></path>
            </g>
        </g>
    </g>
</svg>