<?xml version="1.0" encoding="UTF-8"?>
<svg width="1239px" height="393px" viewBox="0 0 1239 393" version="1.1" xmlns="http://www.w3.org/2000/svg" xmlns:xlink="http://www.w3.org/1999/xlink">
    <title>Orwell White</title>
    <g id="Page-1" stroke="none" stroke-width="1" fill="none" fill-rule="evenodd">
        <g id="Group-3-Copy" transform="translate(0.476168, 0.294095)">
            <g id="Orwell-Copy-3" transform="translate(425.487887, 95.966234)" fill="#FFFFFF" fill-rule="nonzero">
                <path d="M96.6601563,213.28125 C67.8580729,213.28125 45.8463542,205.442708 30.625,189.765625 C10.2083333,170.533854 0,142.825521 0,106.640625 C0,69.7265625 10.2083333,42.0182292 30.625,23.515625 C45.8463542,7.83854167 67.8580729,0 96.6601563,0 C125.46224,0 147.473958,7.83854167 162.695312,23.515625 C183.020833,42.0182292 193.183594,69.7265625 193.183594,106.640625 C193.183594,142.825521 183.020833,170.533854 162.695312,189.765625 C147.473958,205.442708 125.46224,213.28125 96.6601563,213.28125 Z M136.445312,159.140625 C146.197917,146.835938 151.074219,129.335938 151.074219,106.640625 C151.074219,84.0364583 146.17513,66.5592448 136.376953,54.2089844 C126.578776,41.858724 113.339844,35.6835938 96.6601562,35.6835938 C79.9804688,35.6835938 66.6731771,41.8359375 56.7382812,54.140625 C46.8033854,66.4453125 41.8359375,83.9453125 41.8359375,106.640625 C41.8359375,129.335938 46.8033854,146.835938 56.7382812,159.140625 C66.6731771,171.445312 79.9804688,177.597656 96.6601562,177.597656 C113.339844,177.597656 126.601562,171.445312 136.445312,159.140625 Z" id="Shape"></path>
                <path d="M294.035298,94.609375 C278.358215,94.609375 267.830871,99.7135417 262.453267,109.921875 C259.445455,115.664062 257.941548,124.505208 257.941548,136.445312 L257.941548,207.675781 L218.703267,207.675781 L218.703267,58.6523438 L255.890767,58.6523438 L255.890767,84.6289062 C261.906392,74.6940104 267.147277,67.9036458 271.613423,64.2578125 C278.90509,58.1510417 288.384257,55.0976562 300.050923,55.0976562 C300.78009,55.0976562 301.395324,55.1204427 301.896626,55.1660156 C302.397929,55.2115885 303.514465,55.2799479 305.246236,55.3710938 L305.246236,95.2929688 C302.785298,95.0195312 300.597798,94.8372396 298.683736,94.7460938 C296.769673,94.6549479 295.220194,94.609375 294.035298,94.609375 Z" id="Path"></path>
                <polygon id="Path" points="438.090128 207.675781 414.711222 99.1210938 391.058878 207.675781 350.590128 207.675781 308.75419 58.6523438 350.590128 58.6523438 373.832315 165.566406 395.297159 58.6523438 434.808878 58.6523438 457.50419 165.976562 480.746378 58.6523438 521.351847 58.6523438 478.148722 207.675781"></polygon>
                <path d="M667.320739,163.925781 C666.318134,172.766927 661.71527,181.744792 653.512145,190.859375 C640.751728,205.351562 622.887145,212.597656 599.918395,212.597656 C580.960062,212.597656 564.234801,206.490885 549.742614,194.277344 C535.250426,182.063802 528.004332,162.19401 528.004332,134.667969 C528.004332,108.873698 534.544046,89.0950521 547.623473,75.3320312 C560.7029,61.5690104 577.678812,54.6875 598.551207,54.6875 C610.947041,54.6875 622.112405,57.0117188 632.047301,61.6601562 C641.982197,66.3085938 650.185322,73.6458333 656.656676,83.671875 C662.490009,92.5130208 666.272562,102.766927 668.004332,114.433594 C669.006937,121.269531 669.417093,131.113281 669.234801,143.964844 L567.242614,143.964844 C567.789489,158.91276 572.483499,169.394531 581.324645,175.410156 C586.702249,179.147135 593.173603,181.015625 600.738707,181.015625 C608.759541,181.015625 615.276468,178.736979 620.289489,174.179688 C623.023864,171.71875 625.439228,168.300781 627.535582,163.925781 L667.320739,163.925781 Z M628.766051,118.261719 C628.12803,107.96224 625.006286,100.146484 619.400817,94.8144531 C613.795348,89.4824219 606.845478,86.8164062 598.551207,86.8164062 C589.52777,86.8164062 582.532327,89.6419271 577.564879,95.2929688 C572.597431,100.94401 569.475687,108.60026 568.199645,118.261719 L628.766051,118.261719 Z" id="Shape"></path>
                <polygon id="Path" points="693.250568 6.15234375 732.215412 6.15234375 732.215412 207.675781 693.250568 207.675781"></polygon>
                <polygon id="Path" points="767.988991 6.15234375 806.953835 6.15234375 806.953835 207.675781 767.988991 207.675781"></polygon>
            </g>
            <path d="M1147.64641,370.834253 L1137.49135,357.135404 L1127.34474,370.834253 L1120.7096,370.834253 L1134.17062,352.659479 L1121.30083,335.299349 L1128.2893,335.299349 L1137.63986,347.976512 L1147.03125,335.299349 L1153.66568,335.299349 L1140.94934,352.465244 L1154.49763,370.834253 L1147.64641,370.834253 Z M1232.31039,367.364362 L1231.69382,367.479622 C1230.49306,367.705161 1228.80313,367.814729 1226.5269,367.814729 C1224.59415,367.814729 1223.01965,367.485314 1221.84564,366.837866 C1220.93838,366.336272 1219.85587,365.261936 1219.85587,362.987333 C1219.85587,362.033948 1220.10785,361.219303 1220.60406,360.56901 C1221.07422,359.952156 1221.70205,359.468349 1222.47065,359.131107 C1223.18364,358.819479 1223.98884,358.603188 1224.8609,358.486506 C1225.69355,358.376226 1226.53183,358.319308 1227.35462,358.319308 C1228.29637,358.319308 1229.16843,358.376226 1229.94547,358.487217 C1230.73026,358.600342 1231.32078,358.711333 1231.75013,358.826593 L1232.31039,358.978139 L1232.31039,367.364362 Z" id="Fill-1-Copy-2" fill="#FFFFFF"></path>
            <g id="POWERED-BY-Copy-2" transform="translate(665.863693, 347.101615)" fill="#FFFFFF" fill-rule="nonzero">
                <path d="M-1.42108547e-14,0.4572 L5.4864,0.4572 C6.4516,0.4572 7.33213333,0.554566667 8.128,0.7493 C8.92386667,0.944033333 9.6012,1.2446 10.16,1.651 C10.7188,2.0574 11.1506,2.57386667 11.4554,3.2004 C11.7602,3.82693333 11.9126,4.58046667 11.9126,5.461 C11.9126,6.35846667 11.7475,7.12893333 11.4173,7.7724 C11.0871,8.41586667 10.6299,8.9408 10.0457,9.3472 C9.4615,9.7536 8.76723333,10.0541667 7.9629,10.2489 C7.15856667,10.4436333 6.29073333,10.541 5.3594,10.541 L2.5146,10.541 L2.5146,18.4404 L-1.42108547e-14,18.4404 L-1.42108547e-14,0.4572 Z" id="Shape"></path>
                <path d="M51.1873503,9.4234 C51.1873503,10.8119333 50.9460503,12.0861667 50.4634503,13.2461 C49.9808503,14.4060333 49.316217,15.4051 48.4695503,16.2433 C47.6228836,17.0815 46.6153503,17.7334333 45.4469503,18.1991 C44.2785503,18.6647667 43.0085503,18.8976 41.6369503,18.8976 C40.2653503,18.8976 38.9995836,18.6647667 37.8396503,18.1991 C36.679717,17.7334333 35.676417,17.0815 34.8297503,16.2433 C33.9830836,15.4051 33.3226836,14.4060333 32.8485503,13.2461 C32.374417,12.0861667 32.1373503,10.8119333 32.1373503,9.4234 C32.1373503,8.01793333 32.374417,6.73523333 32.8485503,5.5753 C33.3226836,4.41536667 33.9830836,3.42476667 34.8297503,2.6035 C35.676417,1.78223333 36.679717,1.143 37.8396503,0.6858 C38.9995836,0.2286 40.2653503,0 41.6369503,0 C43.0085503,0 44.2785503,0.2286 45.4469503,0.6858 C46.6153503,1.143 47.6228836,1.78223333 48.4695503,2.6035 C49.316217,3.42476667 49.9808503,4.41536667 50.4634503,5.5753 C50.9460503,6.73523333 51.1873503,8.01793333 51.1873503,9.4234 Z" id="Shape"></path>
                <polygon id="Path" points="77.3049006 14.7828 77.3557006 14.7828 81.5721006 0.4572 84.3407006 0.4572 88.5317006 14.7828 88.5825006 14.7828 92.5449006 0.4572 95.2119006 0.4572 89.9287006 18.4404 87.3125006 18.4404 82.9437006 3.9878 82.8929006 3.9878 78.5241006 18.4404 75.9079006 18.4404 70.6247006 0.4572 73.3425006 0.4572"></polygon>
                <polygon id="Path" points="118.103651 16.2052 127.501651 16.2052 127.501651 18.4404 115.589051 18.4404 115.589051 0.4572 127.120651 0.4572 127.120651 2.667 118.103651 2.667 118.103651 8.0518 126.587251 8.0518 126.587251 10.2108 118.103651 10.2108"></polygon>
                <path d="M151.307801,18.4404 L148.793201,18.4404 L148.793201,0.4572 L154.559001,0.4572 C155.422601,0.4572 156.243868,0.5461 157.022801,0.7239 C157.801735,0.9017 158.483301,1.18533333 159.067501,1.5748 C159.651701,1.96426667 160.113135,2.4765 160.451801,3.1115 C160.790468,3.7465 160.959801,4.5212 160.959801,5.4356 C160.959801,6.7564 160.553401,7.8232 159.740601,8.636 C158.927801,9.4488 157.877935,9.96526667 156.591001,10.1854 L161.620201,18.4404 L158.572201,18.4404 L154.000201,10.4394 L151.307801,10.4394 L151.307801,18.4404 Z" id="Shape"></path>
                <polygon id="Path" points="184.842152 16.2052 194.240152 16.2052 194.240152 18.4404 182.327552 18.4404 182.327552 0.4572 193.859152 0.4572 193.859152 2.667 184.842152 2.667 184.842152 8.0518 193.325752 8.0518 193.325752 10.2108 184.842152 10.2108"></polygon>
                <path d="M215.531702,0.4572 L221.703902,0.4572 C222.855368,0.4572 224.006835,0.626533333 225.158302,0.9652 C226.309768,1.30386667 227.351168,1.83726667 228.282502,2.5654 C229.213835,3.29353333 229.967368,4.22486667 230.543102,5.3594 C231.118835,6.49393333 231.406702,7.85706667 231.406702,9.4488 C231.406702,10.9897333 231.118835,12.3232333 230.543102,13.4493 C229.967368,14.5753667 229.213835,15.5067 228.282502,16.2433 C227.351168,16.9799 226.309768,17.5302333 225.158302,17.8943 C224.006835,18.2583667 222.855368,18.4404 221.703902,18.4404 L215.531702,18.4404 L215.531702,0.4572 Z" id="Shape"></path>
                <path d="M277.088602,0.4572 L283.286202,0.4572 C283.963536,0.4572 284.640869,0.5334 285.318202,0.6858 C285.995536,0.8382 286.600902,1.0922 287.134302,1.4478 C287.667702,1.8034 288.099502,2.26906667 288.429702,2.8448 C288.759902,3.42053333 288.925002,4.1402 288.925002,5.0038 C288.925002,6.00286667 288.637136,6.84106667 288.061402,7.5184 C287.485669,8.19573333 286.723669,8.6614 285.775402,8.9154 L285.775402,8.9662 C286.351136,9.03393333 286.884536,9.1821 287.375602,9.4107 C287.866669,9.6393 288.290002,9.93986667 288.645602,10.3124 C289.001202,10.6849333 289.276369,11.1252 289.471102,11.6332 C289.665836,12.1412 289.763202,12.7084667 289.763202,13.335 C289.763202,14.1986 289.585402,14.9521333 289.229802,15.5956 C288.874202,16.2390667 288.391602,16.7682333 287.782002,17.1831 C287.172402,17.5979667 286.456969,17.9112333 285.635702,18.1229 C284.814436,18.3345667 283.938136,18.4404 283.006802,18.4404 L277.088602,18.4404 L277.088602,0.4572 Z" id="Shape"></path>
                <polygon id="Path" points="318.344553 18.4404 315.804553 18.4404 315.804553 10.668 309.073553 0.4572 312.172353 0.4572 317.150753 8.5852 322.154553 0.4572 325.075553 0.4572 318.344553 10.668"></polygon>
            </g>
            <g id="Ascoltare-Copy-7" fill="#28A963" fill-rule="nonzero">
                <path d="M133.631662,384.831795 C121.892074,380.872189 110.576943,376.891226 99.1268448,373.346235 C96.422265,372.508905 93.0690449,372.442747 90.3451338,373.204803 C71.427523,378.497195 52.5677313,384.003312 33.7512346,389.647049 C24.0584263,392.554229 15.4026872,391.374402 8.06057407,384.113021 C0.81501671,376.947197 -0.245250097,368.351689 2.52082568,358.888855 C8.2140314,339.412236 13.8996344,319.93231 19.3490593,300.387001 C19.9773024,298.133718 19.7190961,295.192373 18.8073272,293.016031 C2.69902274,254.566233 -2.31411102,214.544901 0.940213601,173.181087 C3.11829786,145.49678 9.75406589,119.023173 21.5429824,93.9450563 C37.5391294,59.9170189 63.0137191,35.1482238 97.3027261,19.9847521 C137.75428,2.09604665 180.278202,-2.90484413 224.112168,1.51098044 C252.045931,4.32502567 278.805528,11.4164542 303.707005,24.3406288 C338.194278,42.2399725 362.073414,69.9968136 375.950799,106.153681 C385.977274,132.277298 391.418753,159.365928 391.935657,187.487086 C392.395131,212.484433 390.459294,237.076894 384.009058,261.328643 C375.529156,293.211586 361.507778,321.83124 337.0244,344.625423 C316.825134,363.431105 292.818953,374.964654 266.518622,382.637045 C233.2065,392.35498 199.395941,394.270143 165.154058,390.437135 C154.698641,389.26678 144.385237,386.827803 133.631662,384.831795 M222.683882,129.161277 C222.687665,116.317372 222.84548,103.471189 222.657312,90.6300996 C222.407155,73.5551949 207.340768,61.9803239 191.069235,66.1407348 C179.269982,69.1576367 172.26522,79.0876452 172.260692,92.9843321 C172.239126,159.317881 172.24285,225.651444 172.241151,291.984993 C172.241062,295.399039 172.14881,298.819191 172.314935,302.225998 C172.868002,313.567863 179.411205,322.465478 189.57077,325.864331 C206.251109,331.44468 222.625618,319.148629 222.645188,300.848679 C222.706014,243.94496 222.677894,187.041151 222.683882,129.161277 M78.1968286,249.219092 C78.212482,258.807213 77.946956,268.406057 78.3111685,277.980921 C78.8281922,291.573567 90.0160407,301.698996 103.789869,301.539742 C117.134815,301.381758 127.90887,290.85226 128.215056,277.462111 C128.39335,269.665357 128.292772,261.86193 128.293144,254.061483 C128.295334,208.232463 128.252946,162.403369 128.323839,116.57447 C128.33583,108.788483 125.836472,102.182384 119.957339,97.1323145 C111.953651,90.2572927 102.660681,88.6834205 93.1265653,92.9316384 C83.4060987,97.2628886 78.2699282,105.255749 78.2596657,116.119062 C78.2180671,160.160349 78.2139275,204.201696 78.1968286,249.219092 M266.753884,183.821737 C266.758174,204.781004 266.745097,225.740301 266.791894,246.699478 C266.796927,248.95574 266.859541,251.282061 267.389701,253.455334 C270.380435,265.715015 282.135097,273.903536 294.340951,272.38696 C307.729104,270.723531 316.64349,260.777721 316.656864,247.304166 C316.690524,213.347082 316.662344,179.389909 316.662137,145.432781 C316.662047,130.946001 306.189741,119.958698 292.325224,119.908343 C277.469167,119.854814 266.90595,130.280888 266.77828,145.314271 C266.672028,157.823899 266.754838,170.335136 266.753884,183.821737 Z" id="Shape"></path>
            </g>
        </g>
    </g>
</svg>