<?xml version="1.0" encoding="UTF-8"?>
<svg width="1239px" height="393px" viewBox="0 0 1239 393" version="1.1" xmlns="http://www.w3.org/2000/svg" xmlns:xlink="http://www.w3.org/1999/xlink">
    <title>Group 3</title>
    <g id="Page-1" stroke="none" stroke-width="1" fill="none" fill-rule="evenodd">
        <g id="Group-3" transform="translate(0.476168, 0.294095)">
            <g id="Orwell-Copy-3" transform="translate(425.487887, 95.966234)" fill="#131519" fill-rule="nonzero">
                <path d="M96.6601563,213.28125 C67.8580729,213.28125 45.8463542,205.442708 30.625,189.765625 C10.2083333,170.533854 0,142.825521 0,106.640625 C0,69.7265625 10.2083333,42.0182292 30.625,23.515625 C45.8463542,7.83854167 67.8580729,0 96.6601563,0 C125.46224,0 147.473958,7.83854167 162.695312,23.515625 C183.020833,42.0182292 193.183594,69.7265625 193.183594,106.640625 C193.183594,142.825521 183.020833,170.533854 162.695312,189.765625 C147.473958,205.442708 125.46224,213.28125 96.6601563,213.28125 Z M136.445312,159.140625 C146.197917,146.835938 151.074219,129.335938 151.074219,106.640625 C151.074219,84.0364583 146.17513,66.5592448 136.376953,54.2089844 C126.578776,41.858724 113.339844,35.6835938 96.6601562,35.6835938 C79.9804688,35.6835938 66.6731771,41.8359375 56.7382812,54.140625 C46.8033854,66.4453125 41.8359375,83.9453125 41.8359375,106.640625 C41.8359375,129.335938 46.8033854,146.835938 56.7382812,159.140625 C66.6731771,171.445312 79.9804688,177.597656 96.6601562,177.597656 C113.339844,177.597656 126.601562,171.445312 136.445312,159.140625 Z" id="Shape"></path>
                <path d="M294.035298,94.609375 C278.358215,94.609375 267.830871,99.7135417 262.453267,109.921875 C259.445455,115.664062 257.941548,124.505208 257.941548,136.445312 L257.941548,207.675781 L218.703267,207.675781 L218.703267,58.6523438 L255.890767,58.6523438 L255.890767,84.6289062 C261.906392,74.6940104 267.147277,67.9036458 271.613423,64.2578125 C278.90509,58.1510417 288.384257,55.0976562 300.050923,55.0976562 C300.78009,55.0976562 301.395324,55.1204427 301.896626,55.1660156 C302.397929,55.2115885 303.514465,55.2799479 305.246236,55.3710938 L305.246236,95.2929688 C302.785298,95.0195312 300.597798,94.8372396 298.683736,94.7460938 C296.769673,94.6549479 295.220194,94.609375 294.035298,94.609375 Z" id="Path"></path>
                <polygon id="Path" points="438.090128 207.675781 414.711222 99.1210938 391.058878 207.675781 350.590128 207.675781 308.75419 58.6523438 350.590128 58.6523438 373.832315 165.566406 395.297159 58.6523438 434.808878 58.6523438 457.50419 165.976562 480.746378 58.6523438 521.351847 58.6523438 478.148722 207.675781"></polygon>
                <path d="M667.320739,163.925781 C666.318134,172.766927 661.71527,181.744792 653.512145,190.859375 C640.751728,205.351562 622.887145,212.597656 599.918395,212.597656 C580.960062,212.597656 564.234801,206.490885 549.742614,194.277344 C535.250426,182.063802 528.004332,162.19401 528.004332,134.667969 C528.004332,108.873698 534.544046,89.0950521 547.623473,75.3320312 C560.7029,61.5690104 577.678812,54.6875 598.551207,54.6875 C610.947041,54.6875 622.112405,57.0117188 632.047301,61.6601562 C641.982197,66.3085938 650.185322,73.6458333 656.656676,83.671875 C662.490009,92.5130208 666.272562,102.766927 668.004332,114.433594 C669.006937,121.269531 669.417093,131.113281 669.234801,143.964844 L567.242614,143.964844 C567.789489,158.91276 572.483499,169.394531 581.324645,175.410156 C586.702249,179.147135 593.173603,181.015625 600.738707,181.015625 C608.759541,181.015625 615.276468,178.736979 620.289489,174.179688 C623.023864,171.71875 625.439228,168.300781 627.535582,163.925781 L667.320739,163.925781 Z M628.766051,118.261719 C628.12803,107.96224 625.006286,100.146484 619.400817,94.8144531 C613.795348,89.4824219 606.845478,86.8164062 598.551207,86.8164062 C589.52777,86.8164062 582.532327,89.6419271 577.564879,95.2929688 C572.597431,100.94401 569.475687,108.60026 568.199645,118.261719 L628.766051,118.261719 Z" id="Shape"></path>
                <polygon id="Path" points="693.250568 6.15234375 732.215412 6.15234375 732.215412 207.675781 693.250568 207.675781"></polygon>
                <polygon id="Path" points="767.988991 6.15234375 806.953835 6.15234375 806.953835 207.675781 767.988991 207.675781"></polygon>
            </g>
            <path d="M1147.64641,370.834253 L1137.49135,357.135404 L1127.34474,370.834253 L1120.7096,370.834253 L1134.17062,352.659479 L1121.30083,335.299349 L1128.2893,335.299349 L1137.63986,347.976512 L1147.03125,335.299349 L1153.66568,335.299349 L1140.94934,352.465244 L1154.49763,370.834253 L1147.64641,370.834253 Z M1232.31039,367.364362 L1231.69382,367.479622 C1230.49306,367.705161 1228.80313,367.814729 1226.5269,367.814729 C1224.59415,367.814729 1223.01965,367.485314 1221.84564,366.837866 C1220.93838,366.336272 1219.85587,365.261936 1219.85587,362.987333 C1219.85587,362.033948 1220.10785,361.219303 1220.60406,360.56901 C1221.07422,359.952156 1221.70205,359.468349 1222.47065,359.131107 C1223.18364,358.819479 1223.98884,358.603188 1224.8609,358.486506 C1225.69355,358.376226 1226.53183,358.319308 1227.35462,358.319308 C1228.29637,358.319308 1229.16843,358.376226 1229.94547,358.487217 C1230.73026,358.600342 1231.32078,358.711333 1231.75013,358.826593 L1232.31039,358.978139 L1232.31039,367.364362 Z M1237.13594,349.706834 C1236.75868,348.461742 1236.12733,347.390252 1235.25738,346.522957 C1234.37758,345.649259 1233.1726,344.954142 1231.67693,344.459663 C1230.14114,343.952378 1228.20979,343.694822 1225.93497,343.694822 C1224.00996,343.694822 1222.17996,343.835695 1220.49496,344.111749 C1219.17385,344.330174 1218.09204,344.548598 1217.26784,344.763466 L1217.89848,348.486644 C1218.65511,348.289564 1219.54477,348.111694 1220.55549,347.954457 C1221.9674,347.736032 1223.53838,347.625041 1225.2255,347.625041 C1226.52409,347.625041 1227.63335,347.782278 1228.5223,348.094618 C1229.43941,348.419765 1230.19393,348.887919 1230.76827,349.489832 C1231.3419,350.091745 1231.75083,350.800379 1231.9824,351.59368 C1232.20059,352.338601 1232.31039,353.130479 1232.31039,353.949393 L1232.31039,355.961461 L1231.3975,355.763669 C1230.44028,355.556628 1229.53232,355.407929 1228.69967,355.321839 C1227.85083,355.23575 1227.04001,355.193061 1226.28971,355.193061 C1224.65116,355.193061 1223.05695,355.341761 1221.55143,355.633468 C1220.08392,355.919483 1218.7804,356.391906 1217.67607,357.040777 C1216.60482,357.670437 1215.74613,358.494332 1215.12463,359.489693 C1214.5144,360.466556 1214.20541,361.695995 1214.20541,363.146704 C1214.20541,364.686348 1214.48343,365.986224 1215.03172,367.008622 C1215.57931,368.031731 1216.34932,368.874835 1217.32414,369.514457 C1218.3236,370.171153 1219.55955,370.656383 1221.00032,370.956628 C1222.48191,371.266122 1224.14298,371.423359 1225.93497,371.423359 C1228.6863,371.423359 1231.19057,371.271814 1233.37742,370.974415 C1235.19615,370.728954 1236.65311,370.507684 1237.72365,370.31843 L1237.72365,354.002043 C1237.72365,352.445323 1237.52517,351.000306 1237.13594,349.706834 L1237.13594,349.706834 Z M1077.96798,371.476009 C1075.58828,371.476009 1073.5774,371.169361 1071.99234,370.563179 C1070.43825,369.966958 1069.18471,369.137372 1068.26689,368.095053 C1067.34134,367.044907 1066.66917,365.770645 1066.27079,364.308552 C1065.85693,362.795233 1065.64719,361.109735 1065.64719,359.296171 L1065.64719,344.389938 L1071.29624,344.389938 L1071.29624,358.280176 C1071.29624,361.476859 1071.82131,363.726561 1072.9003,365.160195 C1074.01237,366.636517 1075.91557,367.384995 1078.55991,367.384995 C1079.45449,367.384995 1080.39835,367.349421 1081.36543,367.27685 C1082.37756,367.202144 1083.11941,367.110363 1083.63462,366.99368 L1084.22515,366.859922 L1084.22515,344.389938 L1089.8742,344.389938 L1089.8742,370.128464 C1088.60658,370.403807 1087.01589,370.686977 1085.1324,370.975838 C1082.96808,371.308099 1080.55812,371.476009 1077.96798,371.476009 L1077.96798,371.476009 Z M1114.36867,355.619238 L1099.43029,355.619238 L1099.55628,354.748386 C1099.68226,353.869707 1099.91664,353.000278 1100.25449,352.164999 C1100.6036,351.296281 1101.10262,350.513653 1101.73819,349.83988 C1102.37447,349.164685 1103.16066,348.613288 1104.07636,348.199206 C1104.9984,347.782278 1106.07739,347.570968 1107.28378,347.570968 C1108.44653,347.570968 1109.47344,347.762357 1110.33635,348.141576 C1111.19997,348.524353 1111.94111,349.053694 1112.5429,349.717506 C1113.14328,350.380606 1113.605,351.171061 1113.91188,352.067527 C1114.21523,352.94834 1114.36867,353.886783 1114.36867,354.857954 L1114.36867,355.619238 Z M1116.6632,347.056568 C1114.43413,344.826076 1111.25909,343.694822 1107.22466,343.694822 C1105.50516,343.694822 1103.79905,343.995066 1102.15205,344.587018 C1100.51843,345.17399 1099.05162,346.057649 1097.79174,347.213805 C1096.53467,348.367115 1095.51199,349.837035 1094.75113,351.582297 C1093.98957,353.328982 1093.60246,355.402948 1093.60246,357.745854 C1093.60246,359.753653 1093.90511,361.618444 1094.50408,363.289712 C1095.0932,364.938213 1096.0089,366.390345 1097.22444,367.606265 C1098.43998,368.822186 1100.01941,369.787665 1101.91767,370.47709 C1103.83846,371.175053 1106.14144,371.52937 1108.76255,371.52937 C1109.80213,371.52937 1110.83115,371.476009 1111.82146,371.373556 C1112.82092,371.268968 1113.76759,371.135921 1114.63543,370.980107 C1115.4913,370.824293 1116.26412,370.650691 1116.93137,370.460726 C1117.3044,370.354715 1117.63028,370.252262 1117.91041,370.153366 L1117.22839,366.345521 C1116.48654,366.57533 1115.59336,366.79162 1114.55801,366.997238 C1113.07923,367.291079 1111.42801,367.439779 1109.65081,367.439779 C1106.53418,367.439779 1104.09888,366.763872 1102.41177,365.432692 C1100.69087,364.075187 1099.70831,362.14067 1099.49223,359.685351 L1099.41903,358.854341 L1119.96353,358.854341 C1119.97408,358.702796 1119.98253,358.54627 1119.98957,358.380495 C1120.00857,357.948626 1120.01913,357.558023 1120.01913,357.212244 C1120.01913,352.702879 1118.89016,349.285637 1116.6632,347.056568 L1116.6632,347.056568 Z M1173.90331,364.751805 C1172.4372,366.571061 1170.37916,367.492428 1167.7855,367.492428 C1165.19254,367.492428 1163.1345,366.571061 1161.66909,364.751805 C1160.2424,362.981641 1159.51744,360.570433 1159.51744,357.585771 C1159.51744,354.63526 1160.2424,352.251089 1161.67191,350.495866 C1163.13731,348.697954 1165.19465,347.785124 1167.7855,347.785124 C1170.37705,347.785124 1172.43439,348.697954 1173.9012,350.495866 C1175.32859,352.252512 1176.05355,354.636683 1176.05355,357.585771 C1176.05355,360.56901 1175.33,362.980218 1173.90331,364.751805 L1173.90331,364.751805 Z M1180.84462,351.85764 C1180.15555,350.159335 1179.18707,348.690839 1177.96801,347.488437 C1176.74543,346.2839 1175.25117,345.341899 1173.52675,344.68876 C1171.78544,344.028506 1169.85409,343.694822 1167.7855,343.694822 C1165.71901,343.694822 1163.79752,344.028506 1162.07732,344.687337 C1160.36909,345.341899 1158.87272,346.285323 1157.62973,347.491283 C1156.39167,348.695108 1155.41544,350.162181 1154.72919,351.85764 C1154.03943,353.557367 1153.69102,355.484768 1153.69102,357.585771 C1153.69102,359.686774 1154.04013,361.624135 1154.72919,363.343073 C1155.41685,365.053473 1156.38323,366.531929 1157.60299,367.735755 C1158.82697,368.941715 1160.31349,369.893676 1162.02454,370.564602 C1163.74262,371.239797 1165.68171,371.583442 1167.7855,371.583442 C1169.89069,371.583442 1171.83964,371.239797 1173.57954,370.564602 C1175.30959,369.892253 1176.80596,368.940292 1178.02783,367.735755 C1179.24548,366.533352 1180.2013,365.059164 1180.86925,363.348765 C1181.54142,361.630539 1181.88208,359.691042 1181.88208,357.585771 C1181.88208,355.487614 1181.53298,353.560213 1180.84462,351.85764 L1180.84462,351.85764 Z M1047.97367,366.201091 C1046.3858,366.880555 1044.59522,367.225623 1042.6505,367.225623 C1040.66566,367.225623 1038.85537,366.880555 1037.2682,366.201091 C1035.67399,365.518781 1034.3008,364.54761 1033.18872,363.313902 C1032.07665,362.080906 1031.21725,360.567587 1030.63518,358.818056 C1030.05943,357.091292 1029.76734,355.146815 1029.76734,353.040121 C1029.76734,350.932003 1030.06014,348.996776 1030.63658,347.284242 C1031.21796,345.554632 1032.07594,344.044159 1033.1852,342.797644 C1034.29868,341.542592 1035.67188,340.560038 1037.2682,339.876305 C1038.85467,339.198263 1040.66566,338.853907 1042.6505,338.853907 C1044.59592,338.853907 1046.3872,339.198263 1047.97437,339.876305 C1049.56647,340.558615 1050.93896,341.529786 1052.05315,342.767051 C1053.16452,343.999335 1054.02321,345.511232 1054.6074,347.260763 C1055.18314,348.992507 1055.47524,350.936272 1055.47524,353.040121 C1055.47524,355.142546 1055.18314,357.087023 1054.60669,358.818056 C1054.02321,360.567587 1053.16381,362.080906 1052.05315,363.313902 C1050.94037,364.54761 1049.56787,365.518781 1047.97367,366.201091 L1047.97367,366.201091 Z M1055.26056,369.214212 L1053.87258,368.758153 L1055.04378,367.875917 C1055.5231,367.515907 1055.87924,367.225623 1056.19879,366.937473 C1057.9042,365.394983 1059.27388,363.44268 1060.26982,361.130368 C1061.26787,358.813075 1061.77534,356.090239 1061.77534,353.040121 C1061.77534,349.991426 1061.26013,347.280684 1060.24307,344.98189 C1059.22602,342.683807 1057.84437,340.727236 1056.13614,339.166247 C1054.42792,337.604547 1052.39662,336.414951 1050.10139,335.632322 C1047.78011,334.84329 1045.29343,334.442015 1042.70962,334.442015 C1040.1237,334.442015 1037.63702,334.84329 1035.31855,335.632322 C1033.0198,336.416374 1030.96739,337.607393 1029.21693,339.171939 C1027.47281,340.730793 1026.07286,342.68523 1025.05792,344.98189 C1024.04086,347.277838 1023.52494,349.98858 1023.52494,353.040121 C1023.52494,356.091661 1024.04086,358.813075 1025.05862,361.126099 C1026.07427,363.441257 1027.45451,365.396406 1029.16062,366.937473 C1030.86885,368.481387 1032.9093,369.661733 1035.22705,370.445073 C1037.54411,371.229125 1040.04205,371.628977 1042.6519,371.634669 L1043.40431,371.638938 L1043.40431,371.64463 C1052.83512,371.833172 1059.33371,375.525757 1061.91822,377.294498 L1061.91822,372.119899 C1059.85737,370.963743 1057.62055,369.98688 1055.26056,369.214212 L1055.26056,369.214212 Z M1204.18338,364.678522 C1202.83481,366.473588 1200.71202,367.384995 1197.87271,367.384995 C1196.61283,367.384995 1195.41067,367.202144 1194.30071,366.842135 C1193.183,366.47928 1192.30601,366.095792 1191.61906,365.66748 L1191.26151,365.444075 L1191.26151,348.432572 L1191.83373,348.289564 C1192.58262,348.10031 1193.35263,347.976512 1194.12052,347.919594 C1194.85041,347.866944 1195.57677,347.839197 1196.27569,347.839197 C1199.67667,347.839197 1202.20347,348.732816 1203.78711,350.494443 C1205.34894,352.236859 1206.14147,354.677238 1206.14147,357.745854 C1206.14147,360.610987 1205.48267,362.943932 1204.18338,364.678522 L1204.18338,364.678522 Z M1210.93043,351.85764 C1210.24488,350.169296 1209.25317,348.712895 1207.98273,347.530414 C1206.70525,346.343664 1205.13146,345.415182 1203.30568,344.774849 C1201.45809,344.128825 1199.33178,343.800832 1196.98587,343.800832 C1194.67093,343.800832 1192.43833,343.960915 1190.35214,344.274678 C1188.52496,344.550021 1186.93357,344.841728 1185.61034,345.141973 L1185.61034,380.642015 L1191.26151,380.032276 L1191.26151,369.408446 L1192.34895,369.950594 C1193.08587,370.317007 1194.05295,370.659229 1195.22204,370.966589 C1196.37775,371.268968 1197.66789,371.423359 1199.05658,371.423359 C1201.11603,371.423359 1202.98051,371.081849 1204.59724,370.410211 C1206.19778,369.744976 1207.54986,368.802976 1208.61196,367.610534 C1209.68392,366.408132 1210.51797,364.948173 1211.09301,363.271925 C1211.67369,361.577889 1211.9686,359.682505 1211.9686,357.638421 C1211.9686,355.503978 1211.61949,353.55879 1210.93043,351.85764 L1210.93043,351.85764 Z" id="Fill-1-Copy-2" fill="#131519"></path>
            <g id="POWERED-BY-Copy-2" transform="translate(665.863693, 347.101615)" fill="#131519" fill-rule="nonzero">
                <path d="M-1.0658141e-14,0.4572 L5.4864,0.4572 C6.4516,0.4572 7.33213333,0.554566667 8.128,0.7493 C8.92386667,0.944033333 9.6012,1.2446 10.16,1.651 C10.7188,2.0574 11.1506,2.57386667 11.4554,3.2004 C11.7602,3.82693333 11.9126,4.58046667 11.9126,5.461 C11.9126,6.35846667 11.7475,7.12893333 11.4173,7.7724 C11.0871,8.41586667 10.6299,8.9408 10.0457,9.3472 C9.4615,9.7536 8.76723333,10.0541667 7.9629,10.2489 C7.15856667,10.4436333 6.29073333,10.541 5.3594,10.541 L2.5146,10.541 L2.5146,18.4404 L-1.0658141e-14,18.4404 L-1.0658141e-14,0.4572 Z M2.5146,8.4074 L5.1816,8.4074 C5.7912,8.4074 6.35423333,8.35236667 6.8707,8.2423 C7.38716667,8.13223333 7.83166667,7.9629 8.2042,7.7343 C8.57673333,7.5057 8.8646,7.20513333 9.0678,6.8326 C9.271,6.46006667 9.3726,6.00286667 9.3726,5.461 C9.3726,4.91913333 9.26676667,4.46616667 9.0551,4.1021 C8.84343333,3.73803333 8.55556667,3.4417 8.1915,3.2131 C7.82743333,2.9845 7.3914,2.82363333 6.8834,2.7305 C6.3754,2.63736667 5.82506667,2.5908 5.2324,2.5908 L2.5146,2.5908 L2.5146,8.4074 Z" id="Shape"></path>
                <path d="M51.1873503,9.4234 C51.1873503,10.8119333 50.9460503,12.0861667 50.4634503,13.2461 C49.9808503,14.4060333 49.316217,15.4051 48.4695503,16.2433 C47.6228836,17.0815 46.6153503,17.7334333 45.4469503,18.1991 C44.2785503,18.6647667 43.0085503,18.8976 41.6369503,18.8976 C40.2653503,18.8976 38.9995836,18.6647667 37.8396503,18.1991 C36.679717,17.7334333 35.676417,17.0815 34.8297503,16.2433 C33.9830836,15.4051 33.3226836,14.4060333 32.8485503,13.2461 C32.374417,12.0861667 32.1373503,10.8119333 32.1373503,9.4234 C32.1373503,8.01793333 32.374417,6.73523333 32.8485503,5.5753 C33.3226836,4.41536667 33.9830836,3.42476667 34.8297503,2.6035 C35.676417,1.78223333 36.679717,1.143 37.8396503,0.6858 C38.9995836,0.2286 40.2653503,0 41.6369503,0 C43.0085503,0 44.2785503,0.2286 45.4469503,0.6858 C46.6153503,1.143 47.6228836,1.78223333 48.4695503,2.6035 C49.316217,3.42476667 49.9808503,4.41536667 50.4634503,5.5753 C50.9460503,6.73523333 51.1873503,8.01793333 51.1873503,9.4234 Z M48.4695503,9.4234 C48.4695503,8.44126667 48.3086836,7.51416667 47.9869503,6.6421 C47.665217,5.77003333 47.208017,5.0038 46.6153503,4.3434 C46.0226836,3.683 45.3072503,3.1623 44.4690503,2.7813 C43.6308503,2.4003 42.686817,2.2098 41.6369503,2.2098 C40.604017,2.2098 39.6684503,2.4003 38.8302503,2.7813 C37.9920503,3.1623 37.2808503,3.683 36.6966503,4.3434 C36.1124503,5.0038 35.6594836,5.77003333 35.3377503,6.6421 C35.016017,7.51416667 34.8551503,8.44126667 34.8551503,9.4234 C34.8551503,10.4224667 35.016017,11.3622667 35.3377503,12.2428 C35.6594836,13.1233333 36.1166836,13.8895667 36.7093503,14.5415 C37.302017,15.1934333 38.013217,15.7056667 38.8429503,16.0782 C39.6726836,16.4507333 40.604017,16.637 41.6369503,16.637 C42.6698836,16.637 43.6096836,16.4507333 44.4563503,16.0782 C45.303017,15.7056667 46.0226836,15.1934333 46.6153503,14.5415 C47.208017,13.8895667 47.665217,13.1233333 47.9869503,12.2428 C48.3086836,11.3622667 48.4695503,10.4224667 48.4695503,9.4234 Z" id="Shape"></path>
                <polygon id="Path" points="77.3049006 14.7828 77.3557006 14.7828 81.5721006 0.4572 84.3407006 0.4572 88.5317006 14.7828 88.5825006 14.7828 92.5449006 0.4572 95.2119006 0.4572 89.9287006 18.4404 87.3125006 18.4404 82.9437006 3.9878 82.8929006 3.9878 78.5241006 18.4404 75.9079006 18.4404 70.6247006 0.4572 73.3425006 0.4572"></polygon>
                <polygon id="Path" points="118.103651 16.2052 127.501651 16.2052 127.501651 18.4404 115.589051 18.4404 115.589051 0.4572 127.120651 0.4572 127.120651 2.667 118.103651 2.667 118.103651 8.0518 126.587251 8.0518 126.587251 10.2108 118.103651 10.2108"></polygon>
                <path d="M151.307801,18.4404 L148.793201,18.4404 L148.793201,0.4572 L154.559001,0.4572 C155.422601,0.4572 156.243868,0.5461 157.022801,0.7239 C157.801735,0.9017 158.483301,1.18533333 159.067501,1.5748 C159.651701,1.96426667 160.113135,2.4765 160.451801,3.1115 C160.790468,3.7465 160.959801,4.5212 160.959801,5.4356 C160.959801,6.7564 160.553401,7.8232 159.740601,8.636 C158.927801,9.4488 157.877935,9.96526667 156.591001,10.1854 L161.620201,18.4404 L158.572201,18.4404 L154.000201,10.4394 L151.307801,10.4394 L151.307801,18.4404 Z M151.307801,8.3312 L154.203401,8.3312 C154.796068,8.3312 155.346401,8.2804 155.854401,8.1788 C156.362401,8.0772 156.806901,7.9121 157.187901,7.6835 C157.568901,7.4549 157.869468,7.15856667 158.089601,6.7945 C158.309735,6.43043333 158.419801,5.97746667 158.419801,5.4356 C158.419801,4.89373333 158.309735,4.44076667 158.089601,4.0767 C157.869468,3.71263333 157.577368,3.42053333 157.213301,3.2004 C156.849235,2.98026667 156.421668,2.82363333 155.930601,2.7305 C155.439535,2.63736667 154.923068,2.5908 154.381201,2.5908 L151.307801,2.5908 L151.307801,8.3312 Z" id="Shape"></path>
                <polygon id="Path" points="184.842152 16.2052 194.240152 16.2052 194.240152 18.4404 182.327552 18.4404 182.327552 0.4572 193.859152 0.4572 193.859152 2.667 184.842152 2.667 184.842152 8.0518 193.325752 8.0518 193.325752 10.2108 184.842152 10.2108"></polygon>
                <path d="M215.531702,0.4572 L221.703902,0.4572 C222.855368,0.4572 224.006835,0.626533333 225.158302,0.9652 C226.309768,1.30386667 227.351168,1.83726667 228.282502,2.5654 C229.213835,3.29353333 229.967368,4.22486667 230.543102,5.3594 C231.118835,6.49393333 231.406702,7.85706667 231.406702,9.4488 C231.406702,10.9897333 231.118835,12.3232333 230.543102,13.4493 C229.967368,14.5753667 229.213835,15.5067 228.282502,16.2433 C227.351168,16.9799 226.309768,17.5302333 225.158302,17.8943 C224.006835,18.2583667 222.855368,18.4404 221.703902,18.4404 L215.531702,18.4404 L215.531702,0.4572 Z M218.046302,16.2306 L221.195902,16.2306 C222.279635,16.2306 223.282935,16.0782 224.205802,15.7734 C225.128668,15.4686 225.924535,15.0283333 226.593402,14.4526 C227.262268,13.8768667 227.782968,13.1656667 228.155502,12.319 C228.528035,11.4723333 228.714302,10.5156 228.714302,9.4488 C228.714302,8.3312 228.528035,7.34906667 228.155502,6.5024 C227.782968,5.65573333 227.262268,4.94876667 226.593402,4.3815 C225.924535,3.81423333 225.128668,3.38243333 224.205802,3.0861 C223.282935,2.78976667 222.279635,2.6416 221.195902,2.6416 L218.046302,2.6416 L218.046302,16.2306 Z" id="Shape"></path>
                <path d="M277.088602,0.4572 L283.286202,0.4572 C283.963536,0.4572 284.640869,0.5334 285.318202,0.6858 C285.995536,0.8382 286.600902,1.0922 287.134302,1.4478 C287.667702,1.8034 288.099502,2.26906667 288.429702,2.8448 C288.759902,3.42053333 288.925002,4.1402 288.925002,5.0038 C288.925002,6.00286667 288.637136,6.84106667 288.061402,7.5184 C287.485669,8.19573333 286.723669,8.6614 285.775402,8.9154 L285.775402,8.9662 C286.351136,9.03393333 286.884536,9.1821 287.375602,9.4107 C287.866669,9.6393 288.290002,9.93986667 288.645602,10.3124 C289.001202,10.6849333 289.276369,11.1252 289.471102,11.6332 C289.665836,12.1412 289.763202,12.7084667 289.763202,13.335 C289.763202,14.1986 289.585402,14.9521333 289.229802,15.5956 C288.874202,16.2390667 288.391602,16.7682333 287.782002,17.1831 C287.172402,17.5979667 286.456969,17.9112333 285.635702,18.1229 C284.814436,18.3345667 283.938136,18.4404 283.006802,18.4404 L277.088602,18.4404 L277.088602,0.4572 Z M279.603202,8.0518 L282.879802,8.0518 C283.353936,8.0518 283.806902,7.99676667 284.238702,7.8867 C284.670502,7.77663333 285.047269,7.6073 285.369002,7.3787 C285.690736,7.1501 285.944736,6.86223333 286.131002,6.5151 C286.317269,6.16796667 286.410402,5.74886667 286.410402,5.2578 C286.410402,4.2926 286.054802,3.60256667 285.343602,3.1877 C284.632402,2.77283333 283.675669,2.5654 282.473402,2.5654 L279.603202,2.5654 L279.603202,8.0518 Z M279.603202,16.3068 L282.752802,16.3068 C283.277736,16.3068 283.806902,16.2602333 284.340302,16.1671 C284.873702,16.0739667 285.356302,15.9088667 285.788102,15.6718 C286.219902,15.4347333 286.567036,15.1172333 286.829502,14.7193 C287.091969,14.3213667 287.223202,13.8176 287.223202,13.208 C287.223202,12.1412 286.859136,11.3707333 286.131002,10.8966 C285.402869,10.4224667 284.353002,10.1854 282.981402,10.1854 L279.603202,10.1854 L279.603202,16.3068 Z" id="Shape"></path>
                <polygon id="Path" points="318.344553 18.4404 315.804553 18.4404 315.804553 10.668 309.073553 0.4572 312.172353 0.4572 317.150753 8.5852 322.154553 0.4572 325.075553 0.4572 318.344553 10.668"></polygon>
            </g>
            <g id="Ascoltare-Copy-7" fill="#28A963" fill-rule="nonzero">
                <path d="M133.631662,384.831795 C121.892074,380.872189 110.576943,376.891226 99.1268448,373.346235 C96.422265,372.508905 93.0690449,372.442747 90.3451338,373.204803 C71.427523,378.497195 52.5677313,384.003312 33.7512346,389.647049 C24.0584263,392.554229 15.4026872,391.374402 8.06057407,384.113021 C0.81501671,376.947197 -0.245250097,368.351689 2.52082568,358.888855 C8.2140314,339.412236 13.8996344,319.93231 19.3490593,300.387001 C19.9773024,298.133718 19.7190961,295.192373 18.8073272,293.016031 C2.69902274,254.566233 -2.31411102,214.544901 0.940213601,173.181087 C3.11829786,145.49678 9.75406589,119.023173 21.5429824,93.9450563 C37.5391294,59.9170189 63.0137191,35.1482238 97.3027261,19.9847521 C137.75428,2.09604665 180.278202,-2.90484413 224.112168,1.51098044 C252.045931,4.32502567 278.805528,11.4164542 303.707005,24.3406288 C338.194278,42.2399725 362.073414,69.9968136 375.950799,106.153681 C385.977274,132.277298 391.418753,159.365928 391.935657,187.487086 C392.395131,212.484433 390.459294,237.076894 384.009058,261.328643 C375.529156,293.211586 361.507778,321.83124 337.0244,344.625423 C316.825134,363.431105 292.818953,374.964654 266.518622,382.637045 C233.2065,392.35498 199.395941,394.270143 165.154058,390.437135 C154.698641,389.26678 144.385237,386.827803 133.631662,384.831795 M222.683882,129.161277 C222.687665,116.317372 222.84548,103.471189 222.657312,90.6300996 C222.407155,73.5551949 207.340768,61.9803239 191.069235,66.1407348 C179.269982,69.1576367 172.26522,79.0876452 172.260692,92.9843321 C172.239126,159.317881 172.24285,225.651444 172.241151,291.984993 C172.241062,295.399039 172.14881,298.819191 172.314935,302.225998 C172.868002,313.567863 179.411205,322.465478 189.57077,325.864331 C206.251109,331.44468 222.625618,319.148629 222.645188,300.848679 C222.706014,243.94496 222.677894,187.041151 222.683882,129.161277 M78.1968286,249.219092 C78.212482,258.807213 77.946956,268.406057 78.3111685,277.980921 C78.8281922,291.573567 90.0160407,301.698996 103.789869,301.539742 C117.134815,301.381758 127.90887,290.85226 128.215056,277.462111 C128.39335,269.665357 128.292772,261.86193 128.293144,254.061483 C128.295334,208.232463 128.252946,162.403369 128.323839,116.57447 C128.33583,108.788483 125.836472,102.182384 119.957339,97.1323145 C111.953651,90.2572927 102.660681,88.6834205 93.1265653,92.9316384 C83.4060987,97.2628886 78.2699282,105.255749 78.2596657,116.119062 C78.2180671,160.160349 78.2139275,204.201696 78.1968286,249.219092 M266.753884,183.821737 C266.758174,204.781004 266.745097,225.740301 266.791894,246.699478 C266.796927,248.95574 266.859541,251.282061 267.389701,253.455334 C270.380435,265.715015 282.135097,273.903536 294.340951,272.38696 C307.729104,270.723531 316.64349,260.777721 316.656864,247.304166 C316.690524,213.347082 316.662344,179.389909 316.662137,145.432781 C316.662047,130.946001 306.189741,119.958698 292.325224,119.908343 C277.469167,119.854814 266.90595,130.280888 266.77828,145.314271 C266.672028,157.823899 266.754838,170.335136 266.753884,183.821737 Z" id="Shape"></path>
            </g>
        </g>
    </g>
</svg>