<?xml version="1.0" encoding="UTF-8"?>
<svg width="401px" height="180px" viewBox="0 0 401 180" version="1.1" xmlns="http://www.w3.org/2000/svg" xmlns:xlink="http://www.w3.org/1999/xlink">
    <title>Group 6</title>
    <defs>
        <linearGradient x1="68.1754607%" y1="46.9206839%" x2="2.60066157%" y2="19.1973701%" id="linearGradient-1">
            <stop stop-color="#73BF68" offset="0%"></stop>
            <stop stop-color="#2CACDE" offset="100%"></stop>
        </linearGradient>
        <linearGradient x1="62.5302065%" y1="46.8439322%" x2="17.3227816%" y2="18.4296173%" id="linearGradient-2">
            <stop stop-color="#73BF68" offset="0%"></stop>
            <stop stop-color="#2CACDE" offset="100%"></stop>
        </linearGradient>
    </defs>
    <g id="Page-1" stroke="none" stroke-width="1" fill="none" fill-rule="evenodd">
        <g id="Group-6" transform="translate(0.906250, 0.218750)">
            <g id="quexopa_horz1-copy-3" fill-rule="nonzero">
                <g id="Group-2" transform="translate(250.000000, 0.000000)">
                    <path d="M136.823067,46.1314039 C135.705729,46.7717842 134.842677,47.6486126 134.237705,48.7588577 C133.634252,49.8668292 133.332146,51.108182 133.332146,52.4776105 C133.332146,53.8341555 133.634252,55.0626245 134.237705,56.1652915 C134.842677,57.267958 135.705729,58.1402395 136.823067,58.778346 C137.942681,59.420242 139.241435,59.741569 140.717808,59.741569 C142.196459,59.741569 143.48838,59.420242 144.600404,58.778346 C145.713187,58.1402395 146.572444,57.267958 147.176656,56.1652915 C147.779351,55.0626245 148.083734,53.8341555 148.083734,52.4776105 C148.083734,51.108182 147.779351,49.8668292 147.176656,48.7588577 C146.572444,47.6486126 145.713187,46.7717842 144.600404,46.1314039 C143.48838,45.4910236 142.196459,45.1704546 140.717808,45.1704546 C139.241435,45.1704546 137.942681,45.4910236 136.823067,46.1314039 Z M137.573778,57.6408185 C136.685677,57.118662 136.003281,56.4070445 135.524313,55.505207 C135.047624,54.6056435 134.80852,53.5886135 134.80852,52.4563905 C134.80852,51.293854 135.047624,50.2609095 135.524313,49.3605878 C136.003281,48.4595083 136.685677,47.755469 137.573778,47.2499854 C138.459602,46.742986 139.510142,46.4891075 140.717808,46.4891075 C141.911052,46.4891075 142.952483,46.742986 143.842103,47.2499854 C144.728685,47.755469 145.410321,48.4640554 145.889289,49.3711976 C146.364461,50.2806135 146.605084,51.309011 146.605084,52.4563905 C146.605084,53.5886135 146.364461,54.6056435 145.889289,55.505207 C145.410321,56.4070445 144.728685,57.118662 143.842103,57.6408185 C142.952483,58.162217 141.911052,58.422916 140.717808,58.422916 C139.510142,58.422916 138.459602,58.162217 137.573778,57.6408185 Z M137.919909,48.164706 L137.919909,56.567708 L139.510142,56.567708 L139.510142,53.214237 L140.919718,53.1922595 L142.620015,56.567708 L144.412157,56.567708 L142.418863,52.8580495 C142.851528,52.6647985 143.198419,52.3821215 143.459536,52.0085035 C143.721412,51.635643 143.850452,51.181693 143.850452,50.6458955 C143.850452,49.8107486 143.564285,49.1900723 142.988917,48.7793195 C142.415068,48.3693246 141.649935,48.164706 140.695795,48.164706 L137.919909,48.164706 Z M139.510142,49.4613814 L140.27148,49.4613814 C140.956912,49.4613814 141.453337,49.5356503 141.75848,49.6841882 C142.0659,49.8342419 142.218471,50.1767885 142.218471,50.711828 C142.218471,51.1892715 142.046164,51.5136295 141.702309,51.685661 C141.358455,51.856934 140.868101,51.9425705 140.225936,51.9425705 L139.510142,51.9425705 L139.510142,49.4613814 Z" id="Fill-1-Copy-4" fill="url(#linearGradient-1)"></path>
                    <path d="M49.7948277,46.7794125 C49.0409524,46.2590417 48.3277747,45.7251797 47.6630467,45.1816813 C47.7114962,45.0968801 47.7599458,45.0140062 47.8064574,44.9272777 C48.414984,45.540159 49.089402,46.1511129 49.8219595,46.7485757 C49.8142075,46.7601395 49.8045176,46.769776 49.7948277,46.7794125 L49.7948277,46.7794125 Z M38.2056908,39.2552355 C38.8839848,39.6156405 39.5835966,39.9741182 40.3025882,40.3345232 C41.2521997,42.1885853 42.6281675,43.9829011 44.4014217,45.6731427 C44.3316543,45.7752896 44.2599489,45.8735818 44.1921195,45.9699468 C41.445998,43.8190806 39.4692556,41.6046135 38.2056908,39.2552355 L38.2056908,39.2552355 Z M34.6553064,37.2662624 C35.7851504,41.0707515 38.3122799,44.5071265 42.3626638,47.7372804 L42.1494857,47.7700444 C42.0680904,47.7700444 41.9343696,47.7526988 41.7173156,47.6004421 C36.5138319,43.9231547 33.3839897,40.0415736 32.1960063,35.7417685 C32.9847653,36.2544302 33.8084079,36.7632372 34.6553064,37.2662624 L34.6553064,37.2662624 Z M29.7444581,26.779826 C29.7115124,26.914737 29.6785667,27.0515752 29.647559,27.1884135 C26.4692672,24.5576497 24.2657808,22.0059052 22.4808987,19.5967809 C24.4091916,21.8806308 26.6824453,24.3109554 29.7444581,26.779826 L29.7444581,26.779826 Z M34.9634457,12.8493055 L34.9634457,12.8493055 C32.8626724,10.9008058 30.4460079,8.6612838 27.4828322,6.66267425 C32.0448436,9.2452555 34.8646085,12.3578442 36.0603439,13.8611378 C35.7018171,13.5334968 35.3374763,13.1962194 34.9634457,12.8493055 L34.9634457,12.8493055 Z M45.9847536,42.9807053 C45.9014203,43.1368166 45.8180871,43.2910005 45.7347538,43.4451845 C45.4130487,43.1213982 45.1087854,42.7956846 44.820026,42.4680437 C45.2037465,42.6395733 45.5913431,42.8091757 45.9847536,42.9807053 L45.9847536,42.9807053 Z M32.4731378,32.9683846 C32.2037582,32.7852911 31.9363166,32.6021977 31.6746889,32.4191042 C31.668875,32.2976844 31.664999,32.1724099 31.663061,32.0490627 C31.895619,32.3940493 32.1669365,32.7024173 32.4731378,32.9683846 L32.4731378,32.9683846 Z M30.6727518,23.7809481 C30.6262403,23.9042953 30.5816667,24.0276424 30.537093,24.1509896 C27.4692663,21.566481 25.2541521,19.0224457 23.3413631,16.6730677 C25.372369,18.875971 27.6727545,21.3255686 30.6727518,23.7809481 L30.6727518,23.7809481 Z M34.5777871,16.2876078 C33.5041446,15.362504 32.447944,14.3930724 31.3743016,13.4082224 C29.5874815,11.7623086 27.7812816,10.0971219 25.8064771,8.5687734 C28.6979474,10.4825818 31.0816662,12.6931943 33.242517,14.6975857 C33.7541444,15.1678468 34.2444541,15.6226895 34.7270118,16.0582591 C34.6766242,16.1353511 34.6281746,16.2105158 34.5777871,16.2876078 L34.5777871,16.2876078 Z M45.8006452,36.6957817 C45.7463817,36.4375236 45.7018081,36.1792655 45.6649864,35.9171528 C46.1223504,36.1098827 46.5894042,36.3006853 47.06421,36.491488 C47.0894038,36.7574553 47.1262254,37.0234226 47.1688611,37.2874627 C46.7056832,37.0889508 46.2502572,36.8923663 45.8006452,36.6957817 L45.8006452,36.6957817 Z M41.3994864,31.1875599 C41.4304941,30.9967573 41.4673158,30.8078819 41.5060754,30.6190066 C42.1049121,30.9061742 42.7211906,31.1914145 43.3607249,31.4728002 C43.3180893,31.6790213 43.2812677,31.883315 43.2483219,32.0876088 C42.6126636,31.7888774 41.9944471,31.4882186 41.3994864,31.1875599 L41.3994864,31.1875599 Z M43.0913453,35.4623101 C42.453749,35.1597241 41.8335945,34.8571381 41.2328199,34.5545521 C41.215378,34.3406218 41.2037501,34.1247643 41.1979362,33.9050522 C41.7987108,34.1980017 42.4188653,34.4890239 43.0545237,34.7781188 C43.0622756,35.0093948 43.0739035,35.2368161 43.0913453,35.4623101 L43.0913453,35.4623101 Z M24.1262461,13.8013914 C24.8219819,14.4624551 25.5060898,15.1312281 26.1805078,15.7922918 C27.9363202,17.5095156 29.7483341,19.2787765 31.8587973,21.032619 C31.8045338,21.1463297 31.7483323,21.2600403 31.6960067,21.3756783 C29.0022107,19.0899011 26.8878715,16.7944875 24.8355478,14.5703839 C24.6010519,14.3140531 24.364618,14.0577223 24.1262461,13.8013914 L24.1262461,13.8013914 Z M33.0603466,18.7584056 C31.217325,17.1876566 29.5584118,15.5667977 27.9498861,13.9921941 L27.8956226,13.9363024 C26.9343831,12.9977075 25.9828336,12.0668219 25.0138422,11.1687004 C26.6417477,12.479264 28.1591882,13.8765561 29.6611248,15.2603571 C30.7522091,16.2644801 31.9692623,17.3861684 33.2328271,18.4577469 C33.1746876,18.5579665 33.1165481,18.6581861 33.0603466,18.7584056 L33.0603466,18.7584056 Z M40.1184798,26.5254225 C40.0564643,26.683461 39.9944489,26.8414996 39.9363094,26.9995381 C39.6359221,26.8357177 39.3394107,26.6699699 39.0506513,26.5042222 C38.7618919,26.1573083 38.4208069,25.8508677 38.0429003,25.6003187 C38.0642181,25.544427 38.0874739,25.4904627 38.1107297,25.434571 C38.7599539,25.8103944 39.4304959,26.174654 40.1184798,26.5254225 L40.1184798,26.5254225 Z M35.938251,24.0835341 C35.8820495,24.2126631 35.827786,24.3417922 35.7735225,24.4709212 C35.0758487,23.9987329 34.3917407,23.5091988 33.7289506,23.0061737 C33.7832142,22.8847538 33.8374777,22.7633339 33.8956172,22.6419141 C34.5700352,23.1468665 35.2463911,23.6229095 35.938251,24.0835341 L35.938251,24.0835341 Z M35.0545309,20.3715553 C35.1126703,20.2694085 35.1708098,20.163407 35.2289493,20.0593328 C35.8898014,20.562358 36.5545295,21.0326191 37.2134436,21.4643341 C37.1514282,21.5761175 37.0932887,21.6859736 37.0351492,21.7977569 C36.3665452,21.3448416 35.7037551,20.8687986 35.0545309,20.3715553 L35.0545309,20.3715553 Z M39.0370854,36.8788752 C38.2793342,36.4760696 37.5506526,36.073264 36.8491029,35.674313 C36.8258471,35.5721661 36.8006533,35.4700193 36.7793355,35.3678724 C36.7560797,35.2503071 36.7347619,35.1327419 36.7134441,35.0132493 C37.4130559,35.4064184 38.1417374,35.7995875 38.8994886,36.1946839 C38.9382483,36.4221052 38.9847599,36.6514538 39.0370854,36.8788752 L39.0370854,36.8788752 Z M44.0041352,39.3400366 C43.3994846,39.0605782 42.8103378,38.7811198 42.2366949,38.5016614 C42.11654,38.2299122 42.008013,37.9600902 41.9111138,37.6941229 C42.4925087,37.9697267 43.0913453,38.2472579 43.7056859,38.524789 C43.7948331,38.7984655 43.8956082,39.0702147 44.0041352,39.3400366 L44.0041352,39.3400366 Z M45.6397927,33.1668965 C45.6669244,32.9356205 45.7018081,32.7024173 45.7405678,32.4653595 C46.2270014,32.6600167 46.723125,32.8508194 47.2308765,33.0396947 C47.1843649,33.2883163 47.1475433,33.536938 47.1145975,33.7874869 C46.61266,33.5812659 46.1223504,33.3731175 45.6397927,33.1668965 L45.6397927,33.1668965 Z M42.2037492,28.1655543 C42.2677027,27.9843882 42.3355321,27.8012947 42.4072374,27.6182013 C43.0254539,27.8899505 43.6514224,28.1501359 44.2812668,28.3929757 C44.1998715,28.6030513 44.1223522,28.8111996 44.0487088,29.0232026 C43.4130505,28.7398896 42.7987099,28.4546492 42.2037492,28.1655543 L42.2037492,28.1655543 Z M39.1785582,23.1449392 C39.2444496,23.0215921 39.310341,22.8963176 39.3781704,22.7710431 C40.0622783,23.1410846 40.7366963,23.4667982 41.4091763,23.7558931 C41.3239051,23.9177863 41.2405718,24.0777522 41.1591765,24.2396453 C40.4983244,23.8985133 39.8432862,23.5381083 39.1785582,23.1449392 L39.1785582,23.1449392 Z M36.5429016,17.8969028 C36.5835992,17.8352292 36.6223589,17.7735556 36.6630565,17.711882 C37.3762342,18.2765808 38.0196445,18.721787 38.6204191,19.0667736 C38.5758455,19.1419382 38.527396,19.2151756 38.4828223,19.2903403 C37.8335981,18.8605525 37.1921258,18.3999279 36.5429016,17.8969028 L36.5429016,17.8969028 Z M34.0545317,33.9975625 C33.8568575,33.8742154 33.6649972,33.7489409 33.4711989,33.6255937 C33.6572453,33.7161768 33.8452296,33.7932688 34.0429039,33.8568697 C34.0467798,33.9031249 34.0506558,33.9513074 34.0545317,33.9975625 L34.0545317,33.9975625 Z M59.6184625,42.2059309 C59.2715635,42.7108834 58.9266025,43.2119812 58.5816415,43.699588 C57.5564485,43.0038329 56.707612,42.3042232 56.048698,41.6123227 L56.2347445,41.2808272 C58.3413315,37.5225932 60.9246625,32.9124929 63.3064435,31.7599678 C63.901404,33.0069306 64.354892,34.3271307 64.682411,35.7687507 C62.8781495,37.4782653 61.221174,39.8796804 59.6184625,42.2059309 L59.6184625,42.2059309 Z M66.866518,34.1305462 C66.705665,33.5619928 66.527371,33.003076 66.3238825,32.4557229 C66.713417,32.8142006 67.1107035,33.2728979 67.509928,33.8241055 C67.29675,33.9127613 67.081634,34.0149082 66.866518,34.1305462 L66.866518,34.1305462 Z M67.7889975,41.6508687 C67.8006255,39.902808 67.6843465,38.2800219 67.4362845,36.7420369 C67.9324085,36.3874138 68.399462,36.1484287 68.849074,36.0192996 C69.416903,37.1197876 69.866515,38.2761673 70.213414,39.5269846 C69.3626395,40.1514297 68.546749,40.89344 67.7889975,41.6508687 L67.7889975,41.6508687 Z M72.476978,38.2453305 C72.354885,37.8463795 72.223102,37.4589923 72.0816295,37.077387 C72.3839545,37.3568455 72.68628,37.6864137 72.996357,38.0660917 C72.821939,38.1181287 72.6494585,38.1798023 72.476978,38.2453305 L72.476978,38.2453305 Z M73.571938,44.6169826 C73.490543,43.2351089 73.333566,41.9496001 73.0951945,40.7296196 C73.583566,40.5021982 74.05062,40.36536 74.507984,40.3171775 C75.025425,41.2364993 75.4653475,42.2059309 75.83744,43.2582365 C75.029301,43.6648966 74.26186,44.1467215 73.571938,44.6169826 L73.571938,44.6169826 Z M78.205655,42.3678241 C78.1339495,42.1635304 78.058368,41.9630912 77.982787,41.7665067 C78.1610815,41.9303271 78.3374375,42.109566 78.515732,42.3003686 C78.413019,42.3215689 78.310306,42.3427692 78.205655,42.3678241 L78.205655,42.3678241 Z M79.4866615,47.6177878 C79.337437,46.6155921 79.1513905,45.6789246 78.9323985,44.7846576 C79.41108,44.6844381 79.876196,44.6478194 80.329684,44.6825108 C80.788986,45.3956116 81.205652,46.1434038 81.587435,46.9470876 C80.9362725,47.11669 80.2521645,47.3344748 79.4866615,47.6177878 L79.4866615,47.6177878 Z M85.6552605,50.674485 C85.488594,50.0943675 85.3180515,49.5470146 85.141695,49.0227891 C85.616501,49.0362802 86.073865,49.0902446 86.519601,49.1885369 C86.868438,49.6356704 87.209523,50.104004 87.542856,50.59932 C86.957585,50.6070295 86.3335545,50.632084 85.6552605,50.674485 L85.6552605,50.674485 Z M92.442076,54.0453315 C92.360681,53.887293 92.2792855,53.7311815 92.1978905,53.573143 C92.703704,53.6926355 93.1978895,53.837183 93.684323,54.0067855 C93.835486,54.151333 93.9866485,54.2958805 94.135873,54.442355 L92.442076,54.0453315 Z M137.056377,80.794321 C138.403275,93.254312 122.265693,111.058704 112.443996,119.772025 C122.147476,109.01384 131.162972,95.0813915 130.209484,84.62001 C129.961423,81.875536 129.025377,79.4355745 127.426541,77.3618005 C127.850959,76.5966625 128.073827,75.7390145 128.073827,74.8524565 C128.073827,71.9942715 125.750186,69.6660935 122.895537,69.6660935 C121.577709,69.6660935 120.325772,70.165264 119.372285,71.0537495 C113.312213,67.016057 108.595163,63.818667 104.015709,60.5133485 C103.312222,60.0045415 102.64168,59.4398425 102.017649,58.867435 L103.98664,59.3242045 C106.062219,60.470948 108.28121,61.6716555 110.575781,62.6873425 C118.279263,66.096735 125.12228,69.1707775 130.874212,72.2390385 C134.577698,74.2145205 136.659091,77.093906 137.056377,80.794321 L137.056377,80.794321 Z M71.0622505,46.4710447 C70.2812435,47.0704348 69.511864,47.6621157 68.752175,48.1805593 C68.2676795,48.0495029 67.7889975,47.9184466 67.318068,47.7873902 C67.414967,47.0530891 67.502176,46.3149334 67.5738815,45.5729231 C68.659152,44.3702882 69.7289185,43.2196905 70.792871,42.2984413 C70.982793,43.5743136 71.083568,44.9426962 71.102948,46.4421352 L71.0622505,46.4710447 Z M77.0118575,48.6219108 C76.1320135,48.9958069 75.263797,49.3619938 74.4091465,49.6665071 L73.581628,49.4545042 C73.60876,48.8686051 73.6281395,48.2769242 73.6358915,47.6852433 C74.5389915,47.0029793 75.5428665,46.280242 76.5544935,45.7213251 C76.7637955,46.6175194 76.936276,47.567678 77.073873,48.5949286 L77.0118575,48.6219108 Z M80.114568,51.0965635 L79.866506,51.03489 C79.8451885,50.7573585 79.8199945,50.4798275 79.7948005,50.200369 C80.647513,49.8630917 81.5932485,49.5258143 82.560302,49.298393 C82.7385965,49.7917816 82.909139,50.31408 83.0796815,50.880706 C82.0758065,50.9693615 81.087435,51.0522355 80.114568,51.0965635 L80.114568,51.0965635 Z M95.3451745,130.688249 C101.581603,122.34497 120.858718,94.1678515 107.06997,81.85819 C100.746333,76.2112025 96.194011,71.4873915 92.804479,67.048821 C93.5099045,66.3318655 93.914943,65.3605065 93.914943,64.3371105 C93.914943,62.201663 92.1785105,60.465166 90.0428535,60.465166 C89.56611,60.465166 89.09518,60.553822 88.651382,60.727279 C87.843243,59.189294 87.3277395,57.337159 86.831616,55.3134945 C88.1164985,55.619935 89.414947,55.926376 90.7192095,56.2328165 C91.8587435,58.4742655 92.9459515,60.588513 94.51378,62.3654835 C99.3723025,67.8679235 105.339352,73.2759255 113.864538,79.901981 C116.589342,82.018156 118.133914,84.9052505 118.461433,88.4881 C119.455618,99.4621435 109.186247,115.27949 99.2443955,126.423135 C96.831616,129.125209 94.707578,131.703936 92.8354865,134.16317 C93.6223075,133.031845 94.4575785,131.873538 95.3451745,130.688249 L95.3451745,130.688249 Z M94.7967255,117.858216 C92.5176575,117.682832 90.657194,119.496421 90.657194,121.720525 C90.657194,122.682247 91.017659,123.597714 91.663007,124.308888 C90.3587445,126.816304 88.9226995,129.387322 87.391693,131.962194 C83.2792935,138.867708 80.3665055,145.351143 78.7017785,151.210134 C79.6843355,146.571124 81.3800705,141.404034 83.783169,135.770538 C91.674635,117.285809 97.9343195,98.920572 90.3723105,89.773609 C78.7075925,75.671559 74.234728,68.23411 73.2754265,61.3555785 C72.9517835,59.023546 73.14752,56.2405255 73.352946,53.2917575 L73.383954,52.8542605 L73.602946,52.9255705 C74.814185,53.309103 76.069998,53.5307425 77.511857,53.6136165 L77.525423,53.854529 C77.7017795,56.758969 77.868446,59.499589 78.633949,61.9106405 C80.897513,69.0474305 86.3626245,76.7180825 96.9033125,87.564924 C103.364547,94.2102525 99.3916825,107.599201 94.7967255,117.858216 L94.7967255,117.858216 Z M93.8723075,125.532723 C94.6804465,125.683052 95.480833,125.550069 96.161065,125.230137 C95.2366475,126.565755 94.285098,127.887883 93.3199825,129.179174 C89.2734745,134.589103 86.269601,139.453607 84.0680525,143.803522 C85.5467335,140.444239 87.3781275,136.915354 89.560296,133.24963 C91.100992,130.663194 92.550603,128.069049 93.8723075,125.532723 L93.8723075,125.532723 Z M90.4944035,68.180146 C94.019594,72.8711925 98.763776,77.8262795 105.383925,83.737307 C113.674616,91.1362095 107.870357,107.204105 98.3897455,121.897836 C98.3916835,121.83809 98.393621,121.780271 98.393621,121.720525 C98.393621,120.6104 97.9226915,119.573513 97.1087385,118.844994 C104.147492,103.064266 104.690127,91.9514575 98.7192025,85.809154 C88.4692115,75.2648985 83.1804565,67.8891235 81.0409235,61.1512845 C80.3723195,59.037037 80.215343,56.4467465 80.0467385,53.708054 L80.0448005,53.67529 C81.3703805,54.0010035 82.711465,54.326717 84.0699905,54.652431 L84.130068,54.8933435 C84.7637885,57.524107 85.362625,60.006469 86.5448005,62.138062 L86.6998335,62.4117385 C86.3568105,63.001492 86.176578,63.656774 86.176578,64.3371105 C86.176578,66.619033 88.1300645,68.4808045 90.4944035,68.180146 L90.4944035,68.180146 Z M102.533153,62.556286 C107.149428,65.8885865 111.899423,69.1052495 118.000193,73.169924 C117.812209,73.709568 117.717248,74.2742665 117.717248,74.8524565 C117.717248,77.712569 120.038951,80.0407465 122.895537,80.0407465 C123.880033,80.0407465 124.84321,79.7555065 125.670729,79.2293535 C126.821891,80.8502125 127.502122,82.738966 127.693983,84.8474315 C128.748245,96.403519 116.215311,112.991786 105.161057,123.686371 C104.672686,124.158559 104.192066,124.630747 103.723074,125.095226 C113.126166,113.822452 121.955616,99.047774 120.974997,88.260679 C120.583524,83.957019 118.713371,80.474389 115.416862,77.913008 C107.023459,71.3890995 101.162999,66.0813165 96.411065,60.7002965 C95.4633915,59.626791 94.688198,58.348991 93.9575785,56.990245 L97.381994,57.7900745 C99.102923,59.609445 100.694007,61.224522 102.533153,62.556286 L102.533153,62.556286 Z M88.544793,53.127937 C88.734715,53.1317915 88.9188235,53.139501 89.102932,53.1491375 C89.1281255,53.191538 89.1513815,53.2339385 89.1746375,53.276339 C88.965335,53.2281565 88.754095,53.178047 88.544793,53.127937 L88.544793,53.127937 Z M60.7386165,45.0197881 C61.0583835,44.5668727 61.3781505,44.1023936 61.6998555,43.6359871 C62.8277615,41.9977826 63.9847375,40.3171774 65.159155,38.9353037 C65.3045035,40.6371091 65.294814,42.4757528 65.132023,44.5109811 C64.5486905,45.1566264 63.9750475,45.7907079 63.4072185,46.3785342 C62.447917,45.9294735 61.554507,45.4746308 60.7386165,45.0197881 L60.7386165,45.0197881 Z M134.290876,98.0147415 C137.874206,91.9861485 140.143584,85.8515545 139.569941,80.524499 C139.073818,75.943308 136.550564,72.4067135 132.06801,70.014935 C127.13972,67.3860985 121.414919,64.7534075 115.040893,61.9106405 C124.957551,64.2600185 134.244365,66.584342 139.463352,68.424913 C143.655209,69.9031515 146.056369,72.4182775 146.602881,75.9009075 C147.631949,82.4787805 142.484667,91.0514085 137.84126,97.234185 C136.57382,96.871853 135.215294,97.2245485 134.290876,98.0147415 L134.290876,98.0147415 Z M59.085517,27.0727755 C59.978927,27.0727755 61.00412,27.9304238 62.0719485,29.5628464 C59.0331915,31.1335955 56.515752,35.6145667 54.0738935,39.9741181 L53.599088,39.8006612 C53.0642045,38.7965382 52.769631,37.7673602 52.7211815,36.7381823 L52.678546,35.8959525 L52.3064535,35.7629688 C53.8742815,32.5482333 56.6785425,27.120958 59.0467575,27.0747028 C59.058385,27.0727755 59.071951,27.0727755 59.085517,27.0727755 L59.085517,27.0727755 Z M29.1591873,30.5476965 C25.6553145,27.7608215 23.3258592,25.0915117 21.5661709,22.5609675 C23.4750839,24.9566008 25.8549267,27.4736539 29.194071,30.0677989 C29.1805051,30.2277648 29.1688772,30.3877306 29.1591873,30.5476965 L29.1591873,30.5476965 Z M47.170799,48.0861216 C46.8490939,47.8779733 46.5370787,47.6678976 46.2328154,47.4597493 C46.2618851,47.419276 46.2890169,47.38073 46.3161486,47.3402567 C46.6921173,47.6409154 47.0855278,47.9415741 47.4983181,48.2403056 C47.3936671,48.2113961 47.287078,48.159359 47.170799,48.0861216 L47.170799,48.0861216 Z M82.029295,93.759264 L79.7153435,90.340235 C80.566118,89.3920035 81.0447995,88.1604595 81.0447995,86.8749505 C81.0447995,84.014838 78.7230965,81.6866605 75.8665095,81.6866605 C75.283177,81.6866605 74.697906,81.7907345 74.145581,81.985392 C68.395586,73.123669 65.475046,67.4689725 65.475046,61.527108 C65.475046,59.067874 65.969232,56.153797 66.496363,53.043136 L66.6630295,52.054431 C66.7657425,52.0255215 66.86458,51.9927575 66.967293,51.9599935 L66.9983005,51.9715575 C67.3374475,52.110323 67.6746565,52.247161 68.0312455,52.3839995 C68.9246555,52.728986 69.852949,52.902443 70.8471345,52.908225 L70.8316305,53.122155 C70.6165145,56.211616 70.414964,59.1295475 70.775429,61.7024925 C71.8161255,69.1939055 76.26961,76.683391 88.424638,91.3809765 C95.141686,99.504544 88.6726995,117.881345 81.459528,134.783761 C77.969221,142.955511 75.928525,150.246484 75.35682,156.467807 C75.4440295,148.261366 77.843252,138.584395 80.192087,129.105937 C83.7444095,114.78032 87.0990575,101.24875 82.029295,93.759264 L82.029295,93.759264 Z M133.372272,102.740479 C129.60871,107.061485 125.288946,111.336235 121.03895,114.96534 C125.226931,110.588443 129.593206,105.392444 133.044753,100.026842 C132.97111,100.325573 132.930412,100.637796 132.930412,100.959655 C132.930412,101.5841 133.081575,102.189272 133.372272,102.740479 L133.372272,102.740479 Z M149.099002,75.511593 C148.401329,71.044113 145.442029,67.860214 140.306375,66.0485525 C133.569947,63.6721925 120.843214,60.650187 104.89943,56.9478445 L103.849043,56.3658 C101.533154,55.078364 99.1378065,53.7485275 96.393623,52.407127 C95.938197,52.1854875 95.490523,51.994685 95.040911,51.8193005 C93.7715325,50.637866 92.5486655,49.6163973 91.3064185,48.7028574 C90.232776,47.9126646 89.1397535,47.3460386 87.973088,46.9759971 C87.3471195,46.2204957 86.7657245,45.5864142 86.15526,44.9908786 C84.7405325,43.6109322 83.3161155,42.7513566 81.806427,42.3678241 C81.542861,41.9997099 81.2637915,41.633523 80.9653425,41.2692634 C79.3645685,39.3265455 77.730849,38.2183483 75.9808505,37.8868528 C75.9052695,37.7673602 75.82775,37.6478677 75.746355,37.5303024 C74.015736,35.0248131 72.226978,33.6776308 70.2909335,33.4270819 C68.552563,30.6228611 66.736673,29.1619681 64.686287,28.9885112 C62.930475,26.0050516 61.0738875,24.5518679 59.0079975,24.5518679 L58.988618,24.5518679 C55.3258305,24.6270325 52.4924995,29.6148835 49.9207966,34.8918294 C49.8025796,34.8455743 49.6843627,34.8012464 49.5661457,34.7569185 C49.6068434,34.0361085 49.7308743,33.3037347 49.9285485,32.5713609 L50.2425015,31.4400361 L49.1339756,31.046867 C48.1766121,30.7076623 47.2599462,30.3607484 46.3781641,30.0080526 C46.5894042,29.4048079 46.835528,28.7996359 47.1107216,28.2041004 L47.6959924,26.9494284 L46.389792,26.4849492 C45.3859169,26.1303261 44.4169255,25.7448662 43.4479342,25.3170057 C43.7095618,24.8004895 43.9963833,24.2781914 44.3045225,23.7520385 L45.0894056,22.435693 L43.6417324,21.9230314 C42.6397954,21.566481 41.6533621,21.128984 40.6475491,20.5931947 C40.9246806,20.1499159 41.2134401,19.7047097 41.5177033,19.2556489 L42.4343692,17.9065393 L40.8975489,17.3591863 C40.1010379,17.0778005 39.2211938,16.5343021 38.0894118,15.6246167 C38.300652,15.3316672 38.517706,15.0367904 38.7386361,14.7399863 L39.2677054,14.0345947 L38.7851477,13.296439 C38.6979384,13.1634553 29.8917448,0.0192729946 11.3840095,0 L11.2716065,0 C8.1514542,0.00385459892 4.89758116,0.387387192 1.60688644,1.13517938 L1.05262337,1.25467195 L0.779367801,1.74420601 C0.593321456,2.07377422 -3.60628717,9.88511895 9.59525135,18.9549902 L10.6204443,19.6411088 C11.1068779,19.9822408 11.6320713,20.3098817 12.2464118,20.6510137 L12.8762562,20.9632363 L14.1010613,18.8220065 L13.4789688,18.4500377 C13.0022251,18.1667247 12.5545511,17.8834117 12.1359468,17.6155171 C7.81812115,14.6282029 6.8026182,10.4421085 6.60688195,7.99058355 C11.8530013,10.413199 13.6495113,13.7609182 15.8917574,17.9335215 C18.2541583,22.3277642 21.1863262,27.783949 29.2367066,33.7026857 C29.2657764,33.9725076 29.30066,34.2423295 29.3432957,34.5102241 C30.2308918,40.1398659 33.800656,45.0949528 40.2560766,49.6568706 C41.0932851,50.2466245 42.0235168,50.4335725 42.9518106,50.186878 C43.4789419,50.046185 43.9983213,49.768654 44.5215766,49.3446481 C44.9363049,49.6318158 45.3587852,49.9189833 45.8006452,50.2022965 C46.6649855,50.761213 47.622349,50.932743 48.5642086,50.6918305 C49.0622702,50.5684835 49.5564558,50.329498 50.0661455,49.9690931 C50.4808735,50.231206 50.90723,50.4913915 51.351028,50.7496495 C52.7211815,51.5494785 54.164979,51.5032235 55.6455975,50.618593 C56.054512,50.8460145 56.4711785,51.0734355 56.9033485,51.295075 C58.281254,52.0101035 59.750245,52.0062485 61.2696235,51.281584 C61.661096,51.4704595 62.0564445,51.65548 62.465359,51.8385735 C62.9828005,52.0756315 63.5099315,52.225961 64.0603185,52.2953435 L64.0002415,52.646112 C63.459544,55.8415745 62.9479165,58.8597255 62.9479165,61.527108 C62.9479165,68.022107 66.141712,74.2588485 72.0448075,83.3788295 C71.1765915,84.3270605 70.68822,85.570169 70.68822,86.8749505 C70.68822,89.735063 73.009923,92.0613135 75.8665095,92.0613135 C76.4730985,92.0613135 77.058369,91.957239 77.620384,91.7529455 L79.9382115,95.173902 C84.37813,101.730575 81.1533265,114.732137 77.736663,128.504619 C73.823876,144.298838 69.777368,160.630774 76.2075945,170.847388 C79.071933,175.399669 83.6630145,178.267491 90.240528,179.612746 L90.9556435,179.759221 L91.1707595,178.685715 L91.8335495,177.831921 L91.2734725,177.386715 C91.219209,177.342387 85.7812295,172.91538 85.841307,164.252169 C85.8955705,155.492593 91.6106815,140.748752 118.519572,120.249995 C124.062203,116.027282 130.104833,110.301275 135.174596,104.473122 C135.678472,104.71018 136.230797,104.833527 136.798626,104.833527 C138.932345,104.833527 140.668777,103.095103 140.668777,100.959655 C140.668777,100.109716 140.395522,99.306032 139.891646,98.641114 C144.814122,92.0478225 150.248226,82.8449675 149.099002,75.511593 L149.099002,75.511593 Z" id="Fill-8" fill="url(#linearGradient-2)"></path>
                </g>
                <path d="M179.635327,120.139755 L164.938372,99.3839225 L150.253642,120.139755 L140.650912,120.139755 L160.132424,92.6022175 L141.50657,66.2989915 L151.620658,66.2989915 L165.153306,85.5068145 L178.745034,66.2989915 L188.346746,66.2989915 L169.942956,92.3079235 L189.55078,120.139755 L179.635327,120.139755 Z M302.165631,114.882344 L301.273302,115.05698 C299.5355,115.398706 297.089743,115.564718 293.795457,115.564718 C290.998269,115.564718 288.719568,115.065604 287.020475,114.084623 C285.707447,113.324632 284.140776,111.69685 284.140776,108.250481 C284.140776,106.80596 284.50545,105.571648 285.223592,104.586355 C285.904044,103.651728 286.812672,102.918688 287.925028,102.407715 C288.956912,101.935551 290.122237,101.607838 291.384334,101.431046 C292.589386,101.263956 293.802588,101.177716 294.993379,101.177716 C296.356321,101.177716 297.618417,101.263956 298.742997,101.432124 C299.878782,101.603526 300.733422,101.771695 301.354793,101.946331 L302.165631,102.175945 L302.165631,114.882344 Z M309.149435,88.128513 C308.603443,86.242011 307.689722,84.6185415 306.430682,83.3044585 C305.15738,81.980673 303.413467,80.927466 301.248854,80.178255 C299.026179,79.4096405 296.231028,79.019404 292.93878,79.019404 C290.152796,79.019404 287.504329,79.232848 285.065703,79.6511125 C283.153713,79.982059 281.588062,80.3130055 280.395233,80.6385615 L281.307935,86.2797415 C282.402975,85.981135 283.690537,85.7116345 285.153306,85.4733965 C287.1967,85.14245 289.470307,84.974282 291.91199,84.974282 C293.791383,84.974282 295.396761,85.21252 296.683305,85.6857625 C298.010594,86.178409 299.102577,86.887734 299.933789,87.799723 C300.763981,88.7117115 301.355812,89.785401 301.690945,90.987372 C302.006723,92.116039 302.165631,93.3158545 302.165631,94.5566335 L302.165631,97.6052205 L300.844454,97.3055365 C299.459102,96.991838 298.145055,96.766536 296.940002,96.6360975 C295.711521,96.5056595 294.538046,96.4409795 293.452175,96.4409795 C291.080778,96.4409795 288.773556,96.6662815 286.594683,97.108262 C284.470816,97.5416185 282.584293,98.2574115 280.986045,99.240548 C279.435673,100.194579 278.192931,101.442904 277.293471,102.951028 C276.410309,104.431123 275.963125,106.293909 275.963125,108.491953 C275.963125,110.824748 276.365489,112.794256 277.15901,114.343343 C277.951513,115.893509 279.065906,117.17094 280.476724,118.140063 C281.923195,119.135058 283.711929,119.870255 285.797087,120.325171 C287.941327,120.794102 290.34532,121.03234 292.93878,121.03234 C296.920648,121.03234 300.544973,120.802726 303.709891,120.352121 C306.34206,119.980211 308.450647,119.644952 310,119.358204 L310,94.6364055 C310,92.2777395 309.712743,90.088319 309.149435,88.128513 L309.149435,88.128513 Z M78.7929105,121.112112 C75.3488845,121.112112 72.438627,120.647494 70.144647,119.729037 C67.8954875,118.825672 66.0812875,117.568723 64.7529795,115.989451 C63.4134665,114.398322 62.440664,112.467622 61.8641135,110.25233 C61.2651525,107.959421 60.961597,105.405637 60.961597,102.657812 L60.961597,80.072611 L69.137211,80.072611 L69.137211,101.118426 C69.137211,105.961885 69.897117,109.370525 71.458694,111.542697 C73.068147,113.779549 75.8225525,114.913606 79.6495875,114.913606 C80.9442805,114.913606 82.310278,114.859706 83.709891,114.74975 C85.174697,114.63656 86.2483445,114.497498 86.99399,114.320706 L87.84863,114.118041 L87.84863,80.072611 L96.0242435,80.072611 L96.0242435,119.070378 C94.189671,119.487565 91.887542,119.916609 89.1616585,120.354278 C86.029337,120.857704 82.5415095,121.112112 78.7929105,121.112112 L78.7929105,121.112112 Z M131.473973,97.086702 L109.854334,97.086702 L110.036671,95.767229 C110.219008,94.4358975 110.558215,93.11858 111.047163,91.853007 C111.552409,90.5367675 112.274625,89.3509665 113.194458,88.3300995 C114.11531,87.3070765 115.253132,86.4716255 116.578384,85.844229 C117.912804,85.21252 119.474381,84.892354 121.220332,84.892354 C122.903127,84.892354 124.389324,85.182336 125.638178,85.756911 C126.888051,86.3368755 127.96068,87.138908 128.831618,88.144683 C129.700519,89.14938 130.368748,90.3470395 130.812875,91.7053205 C131.25191,93.039886 131.473973,94.4617695 131.473973,95.933241 L131.473973,97.086702 Z M134.794744,84.112959 C131.568708,80.7334255 126.973617,79.019404 121.134766,79.019404 C118.646226,79.019404 116.17704,79.4743205 113.79342,80.3712175 C111.429154,81.2605685 109.306306,82.5994455 107.482938,84.3511975 C105.663645,86.098637 104.183559,88.3257875 103.082408,90.970124 C101.980239,93.6166165 101.419986,96.75899 101.419986,100.308847 C101.419986,103.350966 101.858002,106.176407 102.724865,108.708631 C103.577468,111.20636 104.90272,113.40656 106.661913,115.248864 C108.421106,117.091168 110.706937,118.554015 113.454212,119.598598 C116.234084,120.656117 119.567078,121.192962 123.360497,121.192962 C124.86503,121.192962 126.354284,121.112112 127.787512,120.95688 C129.233982,120.798414 130.604054,120.596827 131.860039,120.360745 C133.098707,120.124663 134.217175,119.861631 135.182846,119.573804 C135.722726,119.413182 136.194357,119.25795 136.599776,119.108108 L135.612713,113.338646 C134.539065,113.68684 133.24641,114.014553 131.747988,114.326095 C129.607823,114.77131 127.218091,114.996612 124.646022,114.996612 C120.13548,114.996612 116.610981,113.972511 114.169298,111.955571 C111.678721,109.898745 110.256698,106.96766 109.943975,103.247478 L109.838036,101.988373 L139.571152,101.988373 C139.586432,101.758759 139.598656,101.521598 139.608842,101.270424 C139.636345,100.616077 139.651625,100.024255 139.651625,99.5003465 C139.651625,92.6679755 138.017725,87.4903365 134.794744,84.112959 L134.794744,84.112959 Z M217.635734,110.923924 C215.513904,113.680372 212.535398,115.076384 208.781705,115.076384 C205.029031,115.076384 202.050524,113.680372 199.929714,110.923924 C197.864928,108.241857 196.815728,104.588511 196.815728,100.066297 C196.815728,95.5958265 197.864928,91.983445 199.933788,89.3240165 C202.054599,86.5999075 205.032087,85.216832 208.781705,85.216832 C212.532342,85.216832 215.50983,86.5999075 217.632678,89.3240165 C219.698482,91.985601 220.747682,95.5979825 220.747682,100.066297 C220.747682,104.586355 219.700519,108.239701 217.635734,110.923924 L217.635734,110.923924 Z M227.681573,91.3873105 C226.684323,88.814122 225.282673,86.5891275 223.518387,84.767306 C221.749007,82.94225 219.586432,81.5149765 217.090761,80.5253715 C214.570643,79.5249865 211.775492,79.019404 208.781705,79.019404 C205.790975,79.019404 203.010085,79.5249865 200.520526,80.5232155 C198.048284,81.5149765 195.882653,82.944406 194.083733,84.771618 C192.291943,86.5955955 190.879088,88.818434 189.885912,91.3873105 C188.887644,93.962655 188.383417,96.88296 188.383417,100.066297 C188.383417,103.249634 188.888663,106.185031 189.885912,108.789482 C190.881125,111.380996 192.279719,113.621082 194.045024,115.44506 C195.816441,117.272272 197.967811,118.714637 200.444128,119.731192 C202.930631,120.754216 205.736987,121.27489 208.781705,121.27489 C211.828461,121.27489 214.649078,120.754216 217.167159,119.731192 C219.670979,118.712481 221.83661,117.270116 223.604971,115.44506 C225.36722,113.623238 226.750535,111.38962 227.717225,108.798106 C228.690028,106.194733 229.18305,103.256102 229.18305,100.066297 C229.18305,96.887272 228.677804,93.966967 227.681573,91.3873105 L227.681573,91.3873105 Z M35.3835184,113.119812 C33.085464,114.149303 30.4940409,114.672133 27.6795355,114.672133 C24.8069675,114.672133 22.1870225,114.149303 19.8899867,113.119812 C17.5827646,112.086009 15.5953957,110.614537 13.9859427,108.745283 C12.3764897,106.877108 11.1327289,104.584199 10.2903127,101.933395 C9.4570643,99.3170865 9.0343282,96.3709095 9.0343282,93.178948 C9.0343282,89.984831 9.4580829,87.052668 10.29235,84.4579195 C11.1337476,81.837299 12.3754711,79.5487025 13.9808495,77.6600445 C15.5923398,75.758451 17.5797086,74.2697315 19.8899867,73.233772 C22.1860038,72.206437 24.8069675,71.6846845 27.6795355,71.6846845 C30.4950596,71.6846845 33.0875012,72.206437 35.384537,73.233772 C37.6887032,74.2675755 39.6750535,75.7390465 41.2875624,77.6136905 C42.8959967,79.4807885 44.1387389,81.771541 44.984211,84.4223455 C45.8174595,87.0462 46.2401956,89.991299 46.2401956,93.178948 C46.2401956,96.3644415 45.8174595,99.3106185 44.9831924,101.933395 C44.1387389,104.584199 42.8949781,106.877108 41.2875624,108.745283 C39.6770907,110.614537 37.6907405,112.086009 35.3835184,113.119812 L35.3835184,113.119812 Z M45.92951,117.685147 L43.9207497,116.994148 L45.6157685,115.657427 C46.3094632,115.111958 46.8248956,114.672134 47.2873587,114.235543 C49.7555261,111.898437 51.737802,108.940402 53.179179,105.436899 C54.623612,101.925849 55.3580525,97.800339 55.3580525,93.178948 C55.3580525,88.5597135 54.612407,84.4525295 53.1404705,80.969508 C51.668534,77.4875645 49.6689417,74.5230615 47.1966996,72.157927 C44.7244575,69.791715 41.7846593,67.989297 38.4628705,66.803496 C35.1033921,65.6079925 31.504533,65 27.7651014,65 C24.0226138,65 20.4237547,65.6079925 17.0683508,66.803496 C13.7414689,67.991453 10.7711113,69.796027 8.23775085,72.166551 C5.7135581,74.5284515 3.6874809,77.4897205 2.21860039,80.969508 C0.74666395,84.4482175 0,88.5554015 0,93.178948 C0,97.802495 0.74666395,101.925849 2.21961903,105.43043 C3.68951819,108.938246 5.68707345,111.900593 8.15625955,114.235543 C10.6285016,116.574806 13.5815422,118.363209 16.9359275,119.550089 C20.2892941,120.738045 23.9044515,121.343883 27.6815728,121.352507 L28.7705002,121.358975 L28.7705002,121.367599 C42.4192727,121.653268 51.8243865,127.248094 55.5648365,129.928005 L55.5648365,122.087703 C52.5822555,120.335952 49.3450137,118.855856 45.92951,117.685147 L45.92951,117.685147 Z M261.458694,110.81289 C259.506977,113.532687 256.434756,114.913606 252.325557,114.913606 C250.50219,114.913606 248.762351,114.63656 247.155954,114.091091 C245.538352,113.541311 244.269125,112.960268 243.274931,112.311312 L242.757461,111.972819 L242.757461,86.197813 L243.585617,85.981135 C244.669451,85.6943865 245.783844,85.5068145 246.895182,85.4205745 C247.951512,85.3408025 249.00275,85.2987605 250.014261,85.2987605 C254.936335,85.2987605 258.593256,86.6527295 260.885199,89.3218605 C263.145564,91.961885 264.292553,95.6594285 264.292553,100.308848 C264.292553,104.649958 263.339105,108.184723 261.458694,110.81289 L261.458694,110.81289 Z M266.957319,84.830908 C265.108486,83.032802 262.830804,81.6260105 260.188449,80.6558095 C257.514516,79.6769845 254.437201,79.180026 251.04207,79.180026 C247.691759,79.180026 244.46063,79.4225765 241.441377,79.897975 C238.796985,80.3151615 236.493837,80.757142 234.578792,81.212058 L234.578792,135 L242.757462,134.076153 L242.757462,117.979441 L244.331262,118.800878 C245.39778,119.356049 246.797393,119.874567 248.489355,120.340264 C250.161964,120.798414 252.029133,121.03234 254.038912,121.03234 C257.019456,121.03234 259.717837,120.5149 262.057655,119.497267 C264.374045,118.489336 266.330855,117.062062 267.867984,115.255333 C269.419375,113.433511 270.626465,111.221452 271.458694,108.681682 C272.299073,106.114961 272.725884,103.243166 272.725884,100.146069 C272.725884,96.912066 272.220638,93.964811 271.223388,91.3873105 C270.231232,88.829214 268.795966,86.6225455 266.957319,84.830908 Z" id="Fill-1-Copy" fill="#FFFFFF"></path>
            </g>
            <text id="POWERED-BY-Copy-2" font-family="AvenirNext-Medium, Avenir Next" font-size="18" font-weight="400" letter-spacing="11.9" fill="#FFFFFF">
                <tspan x="7" y="49.8735721">POWERED BY</tspan>
            </text>
        </g>
    </g>
</svg>